<svg xmlns="http://www.w3.org/2000/svg" xmlns:xlink="http://www.w3.org/1999/xlink" width="5461" zoomAndPan="magnify" viewBox="0 0 4095.75 3432.749976" height="4577" preserveAspectRatio="xMidYMid meet" version="1.0"><defs><g/><clipPath id="7fbcda0a55"><path d="M 2226.53125 210.484375 L 2385 210.484375 L 2385 403 L 2226.53125 403 Z M 2226.53125 210.484375 " clip-rule="nonzero"/></clipPath><clipPath id="58e0cbc04f"><path d="M 3212.410156 1428.269531 L 3370 1428.269531 L 3370 1621 L 3212.410156 1621 Z M 3212.410156 1428.269531 " clip-rule="nonzero"/></clipPath><clipPath id="baad7c6c0f"><path d="M 1928.136719 631.765625 L 2086 631.765625 L 2086 824.59375 L 1928.136719 824.59375 Z M 1928.136719 631.765625 " clip-rule="nonzero"/></clipPath><clipPath id="2b81edbb2e"><path d="M 1311.851562 1087.992188 L 1470 1087.992188 L 1470 1280.820312 L 1311.851562 1280.820312 Z M 1311.851562 1087.992188 " clip-rule="nonzero"/></clipPath><clipPath id="c114c14f38"><path d="M 2340.75 858.933594 L 2499 858.933594 L 2499 1051.761719 L 2340.75 1051.761719 Z M 2340.75 858.933594 " clip-rule="nonzero"/></clipPath><clipPath id="beadc4000f"><path d="M 2162.660156 432.816406 L 2321 432.816406 L 2321 625.644531 L 2162.660156 625.644531 Z M 2162.660156 432.816406 " clip-rule="nonzero"/></clipPath></defs><path fill="#f2f2f2" d="M 1060.292969 1971.878906 C 1055.179688 1980.097656 1057.003906 1986.851562 1056.640625 1993.242188 C 1055.910156 2010.773438 1047.144531 2020.996094 1029.800781 2020.996094 C 1015.375 2020.996094 1004.054688 2022.640625 1001.132812 2039.988281 C 1000.402344 2044.367188 995.65625 2048.75 991.636719 2051.671875 C 956.214844 2076.871094 918.238281 2094.398438 873.136719 2090.5625 C 849.21875 2088.554688 835.523438 2075.59375 835.523438 2051.671875 C 835.339844 2022.457031 836.253906 1993.425781 849.582031 1966.402344 C 855.242188 1954.898438 852.503906 1942.664062 841.914062 1937.734375 C 806.855469 1921.121094 790.242188 1886.429688 767.78125 1859.222656 C 748.246094 1835.667969 724.507812 1821.242188 701.320312 1805.175781 C 677.582031 1788.742188 656.402344 1769.753906 634.671875 1751.128906 C 608.378906 1728.851562 581.902344 1703.472656 549.039062 1689.046875 C 540.457031 1685.210938 531.691406 1680.464844 530.777344 1671.882812 C 528.769531 1652.347656 514.527344 1645.957031 500.285156 1638.652344 C 483.671875 1630.070312 466.507812 1623.3125 455.367188 1605.601562 C 449.34375 1596.289062 436.925781 1588.621094 422.683594 1596.472656 C 419.03125 1598.480469 413.191406 1600.671875 410.269531 1599.03125 C 385.800781 1585.882812 362.246094 1598.664062 338.144531 1600.308594 C 318.058594 1601.585938 308.019531 1612.175781 302.355469 1629.523438 C 298.339844 1641.207031 295.054688 1653.078125 287.566406 1663.117188 C 268.03125 1688.863281 231.695312 1697.992188 197.003906 1684.664062 C 190.246094 1682.109375 185.132812 1679.371094 179.289062 1685.210938 C 167.421875 1696.898438 154.457031 1695.804688 141.859375 1686.855469 C 127.253906 1676.449219 111 1680.648438 95.117188 1679.917969 C 65.71875 1678.273438 38.332031 1641.207031 46 1613.453125 C 48.191406 1605.601562 51.660156 1599.03125 60.058594 1599.210938 C 79.230469 1599.761719 90.371094 1586.796875 102.238281 1575.292969 C 124.148438 1554.113281 142.589844 1529.28125 169.980469 1514.125 C 182.578125 1507.1875 187.871094 1495.5 186.410156 1480.894531 C 180.570312 1425.386719 222.015625 1392.703125 270.039062 1396.355469 C 304 1398.910156 324.269531 1374.078125 339.789062 1350.886719 C 360.421875 1320.214844 385.984375 1295.5625 413.191406 1271.828125 C 432.910156 1254.847656 446.96875 1234.214844 458.835938 1211.570312 C 464.863281 1200.070312 473.992188 1191.488281 486.042969 1187.46875 C 508.867188 1179.617188 516.355469 1160.628906 518.363281 1140.359375 C 521.285156 1111.328125 537.898438 1092.339844 559.082031 1076.089844 C 577.703125 1061.847656 598.886719 1051.988281 621.707031 1047.058594 C 635.585938 1044.136719 641.0625 1036.832031 642.160156 1023.136719 C 643.800781 1001.773438 651.835938 983.699219 673.929688 975.117188 C 688.902344 969.273438 695.839844 959.230469 696.023438 941.882812 C 696.386719 905.730469 707.34375 894.777344 742.765625 888.203125 C 761.757812 884.734375 771.796875 869.761719 781.839844 855.703125 C 790.421875 843.652344 799.1875 832.878906 812.699219 825.574219 C 827.488281 817.722656 836.984375 806.035156 835.707031 787.046875 C 834.425781 765.683594 847.207031 753.449219 867.109375 748.519531 C 885.550781 743.957031 898.882812 737.566406 897.238281 714.011719 C 895.960938 694.839844 914.949219 679.867188 939.601562 678.40625 C 956.214844 677.492188 973.195312 675.667969 988.898438 684.25 C 994.011719 686.988281 1000.039062 687.71875 1006.0625 684.429688 C 1004.96875 675.484375 998.210938 673.109375 990.90625 671.648438 C 974.109375 668.179688 966.804688 658.320312 965.710938 640.976562 C 964.613281 621.984375 976.664062 614.132812 990.726562 609.933594 C 1013.914062 602.996094 1032.902344 591.308594 1047.144531 571.773438 C 1048.789062 569.582031 1051.894531 565.929688 1053.535156 566.296875 C 1086.402344 573.417969 1103.019531 536.167969 1134.425781 536.898438 C 1146.476562 537.082031 1156.335938 524.847656 1158.527344 511.882812 C 1160.535156 499.832031 1169.117188 494.171875 1176.238281 485.953125 C 1191.757812 468.0625 1207.644531 455.28125 1233.023438 457.105469 C 1237.769531 457.472656 1243.429688 449.800781 1248.179688 445.417969 C 1259.679688 434.648438 1271.183594 427.160156 1288.894531 430.628906 C 1299.667969 432.820312 1311.355469 429.898438 1313.910156 414.015625 C 1317.746094 389.730469 1326.511719 384.800781 1352.4375 389.363281 C 1375.808594 393.5625 1403.5625 372.566406 1404.109375 348.464844 C 1404.476562 330.570312 1406.484375 315.78125 1426.203125 308.113281 C 1434.238281 305.007812 1435.882812 294.050781 1439.714844 286.382812 C 1449.394531 266.296875 1464.730469 259.90625 1484.269531 269.585938 C 1500.152344 277.253906 1509.648438 276.886719 1522.976562 261.367188 C 1536.125 245.847656 1557.304688 236.902344 1575.5625 226.128906 C 1583.964844 221.199219 1590.71875 228.683594 1597.109375 233.066406 C 1610.4375 242.011719 1620.847656 245.664062 1624.5 224.121094 C 1626.691406 210.609375 1636.914062 204.949219 1649.878906 204.765625 C 1669.597656 204.398438 1689.316406 203.304688 1709.039062 204.765625 C 1724.558594 206.226562 1733.140625 199.46875 1739.164062 186.140625 C 1746.105469 170.984375 1753.773438 156.011719 1761.808594 141.589844 C 1771.847656 123.328125 1786.457031 120.042969 1802.34375 133.371094 C 1811.652344 141.222656 1817.863281 141.589844 1825.894531 132.640625 C 1842.511719 114.382812 1861.136719 98.316406 1879.03125 81.332031 C 1890.898438 70.011719 1907.515625 78.230469 1918.652344 65.8125 C 1931.617188 51.390625 1942.570312 65.632812 1954.804688 71.292969 C 1964.117188 75.671875 1978.542969 70.5625 1986.394531 75.855469 C 2001 85.898438 2012.503906 86.996094 2026.199219 76.402344 C 2028.574219 74.578125 2034.597656 74.210938 2036.605469 75.855469 C 2051.761719 89.367188 2069.65625 87.359375 2088.097656 88.273438 C 2098.6875 88.820312 2103.433594 90.28125 2106.539062 78.414062 C 2112.015625 58.144531 2126.625 52.300781 2145.613281 59.421875 C 2153.648438 62.527344 2158.941406 61.429688 2165.152344 55.953125 C 2190.53125 33.859375 2232.527344 38.425781 2250.421875 66.910156 C 2260.464844 83.160156 2270.324219 85.535156 2286.207031 76.953125 C 2292.234375 73.664062 2300.449219 73.300781 2307.390625 73.664062 C 2319.804688 74.210938 2327.839844 70.011719 2333.863281 58.875 C 2340.984375 45.910156 2353.585938 38.789062 2368.375 40.433594 C 2382.796875 42.078125 2387.363281 53.03125 2389.738281 66.726562 C 2392.292969 82.0625 2410.003906 91.011719 2425.160156 85.898438 C 2445.976562 78.777344 2460.765625 84.804688 2478.292969 98.679688 C 2508.421875 122.597656 2544.210938 134.832031 2584.015625 121.320312 C 2588.214844 119.859375 2592.777344 117.667969 2596.613281 118.398438 C 2613.230469 121.867188 2627.105469 118.582031 2642.625 110.546875 C 2657.964844 102.695312 2673.847656 114.746094 2686.265625 124.425781 C 2697.585938 133.191406 2706.351562 136.476562 2718.582031 127.347656 C 2730.816406 118.398438 2745.058594 117.667969 2757.109375 126.800781 C 2774.457031 139.945312 2797.828125 130.632812 2814.625 143.78125 C 2841.101562 164.414062 2878.167969 162.769531 2903.367188 187.054688 C 2908.84375 192.347656 2914.867188 196.183594 2914.503906 204.21875 C 2913.589844 219.921875 2921.988281 229.050781 2935.5 233.613281 C 2954.671875 240.003906 2970.925781 249.867188 2994.84375 245.664062 C 3038.664062 238.179688 3084.679688 236.71875 3116.996094 278.53125 C 3118.640625 280.539062 3122.109375 283.097656 3123.933594 282.550781 C 3149.132812 275.976562 3165.019531 287.660156 3177.800781 308.113281 C 3180.902344 313.042969 3188.207031 317.242188 3194.234375 317.972656 C 3225.457031 321.988281 3247.914062 336.230469 3258.140625 367.269531 C 3260.148438 373.113281 3265.808594 379.503906 3272.382812 379.6875 C 3299.953125 380.234375 3317.480469 402.144531 3341.21875 410.546875 C 3365.6875 419.128906 3368.058594 447.246094 3383.945312 463.863281 C 3387.78125 467.878906 3389.058594 473.722656 3395.265625 476.460938 C 3428.132812 489.972656 3453.878906 509.691406 3458.441406 548.402344 C 3459.539062 558.078125 3467.570312 562.277344 3476.152344 565.746094 C 3497.882812 574.328125 3507.742188 593.136719 3521.617188 611.03125 C 3546.085938 642.800781 3564.894531 682.972656 3604.878906 700.316406 C 3626.609375 709.8125 3651.625 705.792969 3674.628906 713.644531 C 3708.410156 725.148438 3744.5625 723.871094 3779.4375 729.167969 C 3807.738281 733.367188 3837.5 737.199219 3865.4375 737.566406 C 3887.714844 737.75 3912.363281 733.367188 3935.917969 731.539062 C 3949.429688 730.628906 3962.210938 730.992188 3971.886719 742.679688 C 3976.636719 748.339844 3982.296875 748.886719 3989.597656 746.511719 C 4013.703125 738.296875 4040.359375 755.277344 4044.558594 781.570312 C 4046.019531 790.882812 4047.664062 799.828125 4050.949219 808.957031 C 4058.800781 830.320312 4047.117188 847.484375 4023.925781 847.304688 C 4007.3125 847.304688 3996.355469 851.683594 3989.417969 867.570312 C 3984.667969 878.527344 3973.898438 884.1875 3964.402344 891.125 C 3924.960938 920.15625 3912.179688 935.496094 3928.613281 977.308594 C 3935.917969 995.933594 3926.242188 1013.09375 3920.761719 1030.078125 C 3915.652344 1046.691406 3906.519531 1061.664062 3900.859375 1078.28125 C 3895.75 1093.433594 3878.765625 1096.722656 3865.074219 1100.191406 C 3851.925781 1103.476562 3843.710938 1110.78125 3836.769531 1122.832031 C 3857.402344 1132.144531 3876.394531 1122.285156 3888.992188 1113.703125 C 3920.945312 1091.792969 3944.5 1110.78125 3967.871094 1125.570312 C 3984.304688 1135.980469 3998 1148.941406 4018.085938 1154.238281 C 4039.445312 1159.714844 4048.578125 1195.320312 4033.785156 1211.390625 C 3984.121094 1265.4375 3949.429688 1329.160156 3915.101562 1393.25 C 3908.894531 1404.933594 3902.503906 1416.4375 3894.105469 1426.296875 C 3858.863281 1467.929688 3848.640625 1521.246094 3825.816406 1568.71875 C 3793.679688 1635.183594 3777.792969 1709.132812 3738.355469 1772.308594 C 3709.871094 1817.773438 3679.195312 1862.144531 3646.875 1905.050781 C 3625.332031 1933.535156 3609.8125 1965.671875 3588.628906 1994.339844 C 3574.023438 2014.242188 3561.425781 2036.515625 3543.53125 2053.132812 C 3495.144531 2098.414062 3453.695312 2149.90625 3409.507812 2199.023438 C 3352.90625 2261.835938 3285.347656 2309.855469 3216.691406 2357.148438 C 3185.652344 2378.511719 3156.253906 2402.429688 3125.398438 2424.15625 C 3084.3125 2453.371094 3037.570312 2471.996094 2993.203125 2494.820312 C 2972.933594 2505.410156 2954.125 2516.914062 2938.789062 2534.078125 C 2913.226562 2562.746094 2882.550781 2586.847656 2862.101562 2620.261719 C 2857.902344 2627.199219 2851.328125 2631.945312 2843.292969 2634.503906 C 2802.757812 2646.917969 2774.09375 2671.203125 2752.363281 2709.363281 C 2719.316406 2767.0625 2687.542969 2825.308594 2672.570312 2889.765625 C 2655.226562 2964.261719 2616.515625 3028.351562 2581.457031 3093.71875 C 2553.886719 3145.027344 2510.613281 3185.195312 2465.878906 3222.992188 C 2420.414062 3261.519531 2369.105469 3292.195312 2324.371094 3331.816406 C 2287.671875 3364.320312 2251.335938 3398.464844 2205.140625 3418.914062 C 2175.558594 3431.878906 2163.875 3431.328125 2142.328125 3407.59375 C 2139.953125 3404.855469 2138.492188 3402.296875 2133.929688 3401.933594 C 2100.332031 3398.097656 2089.925781 3383.855469 2087.367188 3350.441406 C 2084.628906 3314.289062 2095.035156 3279.78125 2097.59375 3244.355469 C 2099.785156 3213.863281 2089.195312 3185.5625 2087.550781 3155.800781 C 2084.261719 3095.726562 2111.652344 3056.105469 2163.324219 3030.542969 C 2183.777344 3020.5 2203.679688 3012.832031 2205.140625 2984.164062 C 2205.871094 2969.921875 2220.476562 2958.785156 2233.257812 2952.394531 C 2256.265625 2941.074219 2269.59375 2918.796875 2290.773438 2905.652344 C 2299.539062 2900.171875 2292.417969 2895.425781 2289.128906 2891.773438 C 2270.507812 2872.417969 2247.683594 2861.644531 2221.570312 2854.523438 C 2192.722656 2846.675781 2165.335938 2835.71875 2139.953125 2817.09375 C 2106.539062 2792.445312 2075.132812 2766.515625 2047.015625 2736.207031 C 2033.6875 2721.78125 2029.667969 2703.886719 2028.390625 2686.359375 C 2026.746094 2667.003906 2020.175781 2651.121094 2007.394531 2637.425781 C 1994.246094 2623.183594 1984.570312 2607.113281 1982.742188 2587.394531 C 1982.011719 2578.082031 1976.351562 2576.257812 1968.867188 2573.519531 C 1945.859375 2564.9375 1921.394531 2558.363281 1909.890625 2532.433594 C 1906.96875 2526.042969 1899.480469 2523.488281 1892.179688 2520.933594 C 1875.378906 2514.90625 1856.574219 2513.992188 1842.878906 2499.570312 C 1835.390625 2491.71875 1825.714844 2494.820312 1816.585938 2499.933594 C 1803.074219 2507.421875 1791.023438 2504.5 1777.875 2496.28125 C 1728.757812 2465.058594 1685.300781 2426.53125 1639.105469 2391.476562 C 1623.953125 2379.972656 1612.8125 2366.277344 1614.457031 2345.644531 C 1615.734375 2329.027344 1603.136719 2321.542969 1592.363281 2313.144531 C 1586.15625 2308.214844 1576.113281 2305.292969 1573.375 2299.082031 C 1562.964844 2274.800781 1542.699219 2276.808594 1522.066406 2276.261719 C 1462.722656 2274.433594 1410.503906 2254.714844 1369.054688 2210.527344 C 1359.378906 2200.121094 1351.34375 2194.640625 1338.5625 2206.875 C 1322.128906 2222.394531 1306.242188 2210.710938 1293.28125 2201.214844 C 1278.671875 2190.261719 1264.246094 2180.035156 1246.71875 2174.375 C 1232.84375 2169.992188 1222.800781 2160.863281 1218.050781 2146.4375 C 1212.941406 2131.101562 1205.453125 2117.769531 1190.296875 2109.738281 C 1183.90625 2106.269531 1177.882812 2099.148438 1178.246094 2092.390625 C 1179.527344 2066.464844 1160.351562 2053.863281 1145.199219 2038.710938 C 1120.363281 2012.234375 1091.148438 1991.964844 1060.292969 1971.878906 Z M 3512.125 1688.132812 C 3493.863281 1709.132812 3470.859375 1705.113281 3448.582031 1706.574219 C 3437.261719 1707.304688 3431.601562 1713.878906 3437.445312 1726.476562 C 3442.375 1736.886719 3439.636719 1746.5625 3430.6875 1753.867188 C 3420.828125 1761.902344 3410.238281 1760.074219 3400.011719 1755.144531 C 3394.902344 1752.589844 3390.699219 1748.023438 3385.769531 1745.101562 C 3368.605469 1735.242188 3351.808594 1724.105469 3333.183594 1743.824219 C 3325.699219 1751.859375 3313.832031 1752.039062 3304.335938 1747.476562 C 3292.648438 1741.632812 3286.074219 1747.292969 3280.597656 1755.691406 C 3257.226562 1791.480469 3248.828125 1830.554688 3260.148438 1871.820312 C 3264.347656 1887.15625 3265.441406 1901.949219 3264.53125 1917.101562 C 3263.617188 1932.074219 3255.582031 1942.664062 3240.0625 1942.484375 C 3224.179688 1942.300781 3220.707031 1949.605469 3219.613281 1963.664062 C 3218.519531 1978.453125 3209.386719 1988.496094 3193.503906 1986.851562 C 3160.269531 1983.382812 3158.8125 1986.851562 3158.992188 2024.648438 C 3158.992188 2034.328125 3161.730469 2042.90625 3165.566406 2051.855469 C 3175.0625 2073.582031 3169.035156 2085.816406 3146.941406 2092.753906 C 3128.316406 2098.597656 3109.695312 2104.074219 3090.886719 2109.554688 C 3075.183594 2114.117188 3070.253906 2124.527344 3073.90625 2139.679688 C 3080.480469 2167.984375 3072.808594 2177.660156 3043.960938 2179.304688 C 3013.101562 2181.128906 2979.140625 2171.816406 2954.855469 2201.945312 C 2952.117188 2205.414062 2943.902344 2204.320312 2938.242188 2205.597656 C 2934.042969 2206.507812 2928.929688 2206.691406 2926.007812 2209.25 C 2898.984375 2232.621094 2888.394531 2275.164062 2901.355469 2309.855469 C 2908.660156 2329.574219 2901.355469 2353.128906 2889.304688 2358.789062 C 2863.5625 2370.839844 2846.214844 2395.671875 2817.367188 2402.0625 C 2799.652344 2405.898438 2782.492188 2408.820312 2789.0625 2438.398438 C 2794.359375 2462.320312 2794.175781 2470.535156 2819.921875 2471.996094 C 2812.070312 2441.6875 2826.859375 2423.0625 2858.265625 2422.332031 C 2879.445312 2421.785156 2895.695312 2432.191406 2912.3125 2443.148438 C 2929.109375 2454.285156 2941.890625 2451.546875 2950.292969 2433.46875 C 2957.59375 2417.765625 2968.367188 2413.386719 2984.800781 2413.386719 C 2999.589844 2413.386719 3015.839844 2419.046875 3028.988281 2407.359375 C 3071.53125 2369.378906 3112.980469 2330.304688 3142.195312 2280.277344 C 3149.5 2267.675781 3159.722656 2255.078125 3175.242188 2265.488281 C 3204.457031 2285.023438 3224.726562 2266.398438 3244.992188 2250.878906 C 3253.757812 2244.125 3260.332031 2233.167969 3265.445312 2222.941406 C 3280.78125 2192.632812 3296.117188 2162.503906 3282.242188 2126.351562 C 3276.035156 2110.101562 3278.589844 2091.476562 3281.875 2074.3125 C 3286.074219 2052.769531 3303.96875 2045.28125 3326.429688 2050.757812 C 3343.410156 2054.777344 3364.226562 2050.210938 3373.355469 2038.890625 C 3382.300781 2027.570312 3390.699219 2009.3125 3380.660156 1990.140625 C 3372.441406 1974.253906 3381.753906 1958.734375 3398.734375 1959.28125 C 3418.636719 1960.011719 3433.425781 1952.160156 3448.582031 1941.570312 C 3459.902344 1933.71875 3472.136719 1926.78125 3485.832031 1924.042969 C 3498.0625 1921.667969 3504.820312 1914.730469 3509.75 1904.320312 C 3536.042969 1850.457031 3530.019531 1796.042969 3512.671875 1741.449219 C 3507.558594 1724.46875 3497.699219 1708.402344 3512.125 1688.132812 Z M 3574.203125 1648.511719 C 3570.554688 1659.46875 3572.378906 1669.144531 3566.535156 1677.542969 C 3556.675781 1691.96875 3562.703125 1708.585938 3578.402344 1715.886719 C 3584.613281 1718.808594 3585.34375 1715.339844 3587.898438 1711.503906 C 3601.957031 1691.238281 3598.671875 1673.527344 3574.203125 1648.511719 Z M 2788.878906 2553.980469 C 2798.375 2526.226562 2832.15625 2534.441406 2844.207031 2511.070312 C 2844.570312 2510.523438 2845.300781 2509.976562 2845.484375 2509.429688 C 2849.320312 2499.203125 2841.46875 2494.089844 2834.894531 2491.167969 C 2825.035156 2486.605469 2827.773438 2496.648438 2826.675781 2501.027344 C 2823.574219 2514.359375 2814.808594 2520.199219 2802.027344 2520.929688 C 2793.261719 2521.480469 2784.679688 2521.84375 2778.472656 2529.332031 C 2774.820312 2533.714844 2773.359375 2538.460938 2776.828125 2543.023438 C 2779.203125 2546.496094 2782.855469 2548.867188 2788.878906 2553.980469 Z M 2788.878906 2553.980469 " fill-opacity="1" fill-rule="nonzero"/><g clip-path="url(#7fbcda0a55)"><path fill="#466b66" d="M 2365.886719 358.46875 C 2356.476562 354.710938 2343.714844 351.886719 2329.519531 350.390625 C 2347.882812 325.621094 2368.210938 294.042969 2368.210938 273.390625 C 2368.210938 238.703125 2339.992188 210.484375 2305.304688 210.484375 C 2270.617188 210.484375 2242.394531 238.703125 2242.394531 273.390625 C 2242.394531 286.113281 2250.394531 304.796875 2266.175781 328.921875 C 2271.015625 336.320312 2276.171875 343.609375 2281.171875 350.382812 C 2266.953125 351.875 2254.167969 354.695312 2244.742188 358.457031 C 2229.722656 364.453125 2226.570312 371.332031 2226.570312 376.046875 C 2226.570312 393.511719 2267.136719 402.9375 2305.304688 402.9375 C 2343.46875 402.9375 2384.035156 393.511719 2384.035156 376.046875 C 2384.035156 371.335938 2380.886719 364.460938 2365.886719 358.46875 Z M 2248.410156 273.390625 C 2248.410156 242.019531 2273.929688 216.496094 2305.304688 216.496094 C 2336.675781 216.496094 2362.195312 242.019531 2362.195312 273.390625 C 2362.195312 285.050781 2354.632812 302.535156 2339.710938 325.363281 C 2327.886719 343.453125 2314.152344 360.742188 2305.304688 371.777344 C 2287.660156 349.730469 2248.410156 299.625 2248.410156 273.390625 Z M 2302.957031 378.464844 C 2303.527344 379.175781 2304.390625 379.589844 2305.304688 379.589844 C 2306.214844 379.589844 2307.078125 379.175781 2307.648438 378.464844 L 2308.535156 377.359375 C 2310.460938 374.960938 2312.664062 372.214844 2315.0625 369.1875 C 2330.007812 370.460938 2335.996094 374.113281 2336.484375 375.359375 C 2336.234375 375.953125 2334.238281 377.804688 2327.804688 379.480469 C 2321.707031 381.066406 2313.714844 381.941406 2305.304688 381.941406 C 2296.890625 381.941406 2288.902344 381.066406 2282.800781 379.480469 C 2276.367188 377.804688 2274.371094 375.953125 2274.125 375.359375 C 2274.609375 374.113281 2280.601562 370.457031 2295.5625 369.1875 C 2298.371094 372.75 2300.886719 375.886719 2302.957031 378.464844 Z M 2357.945312 390.066406 C 2343.925781 394.488281 2325.230469 396.921875 2305.304688 396.921875 C 2285.375 396.921875 2266.679688 394.488281 2252.660156 390.066406 C 2240.089844 386.101562 2232.585938 380.859375 2232.585938 376.046875 C 2232.585938 368.382812 2252.292969 358.894531 2285.378906 356.019531 C 2287.378906 358.664062 2289.328125 361.203125 2291.191406 363.605469 C 2282.144531 364.738281 2268.097656 367.722656 2268.097656 375.359375 C 2268.097656 385.300781 2291.484375 387.957031 2305.304688 387.957031 C 2319.121094 387.957031 2342.507812 385.300781 2342.507812 375.359375 C 2342.507812 367.734375 2328.488281 364.742188 2319.449219 363.609375 C 2321.332031 361.199219 2323.289062 358.664062 2325.292969 356.023438 C 2358.335938 358.910156 2378.019531 368.390625 2378.019531 376.046875 C 2378.019531 380.859375 2370.515625 386.101562 2357.945312 390.066406 Z M 2337.332031 273.320312 C 2337.332031 255.660156 2322.964844 241.289062 2305.304688 241.289062 C 2287.640625 241.289062 2273.273438 255.660156 2273.273438 273.320312 C 2273.273438 290.980469 2287.640625 305.347656 2305.304688 305.347656 C 2322.964844 305.347656 2337.332031 290.980469 2337.332031 273.320312 Z M 2305.304688 299.332031 C 2290.957031 299.332031 2279.289062 287.664062 2279.289062 273.320312 C 2279.289062 258.972656 2290.957031 247.304688 2305.304688 247.304688 C 2319.648438 247.304688 2331.316406 258.972656 2331.316406 273.320312 C 2331.316406 287.664062 2319.648438 299.332031 2305.304688 299.332031 Z M 2305.304688 299.332031 " fill-opacity="1" fill-rule="nonzero"/></g><g clip-path="url(#58e0cbc04f)"><path fill="#466b66" d="M 3351.765625 1576.253906 C 3342.351562 1572.492188 3329.589844 1569.671875 3315.394531 1568.175781 C 3333.757812 1543.40625 3354.085938 1511.824219 3354.085938 1491.175781 C 3354.085938 1456.488281 3325.867188 1428.269531 3291.179688 1428.269531 C 3256.492188 1428.269531 3228.269531 1456.488281 3228.269531 1491.175781 C 3228.269531 1503.898438 3236.273438 1522.582031 3252.050781 1546.707031 C 3256.890625 1554.105469 3262.050781 1561.394531 3267.046875 1568.167969 C 3252.832031 1569.660156 3240.046875 1572.480469 3230.617188 1576.242188 C 3215.601562 1582.238281 3212.449219 1589.117188 3212.449219 1593.832031 C 3212.449219 1611.296875 3253.011719 1620.722656 3291.179688 1620.722656 C 3329.347656 1620.722656 3369.910156 1611.296875 3369.910156 1593.832031 C 3369.910156 1589.121094 3366.761719 1582.246094 3351.765625 1576.253906 Z M 3234.285156 1491.175781 C 3234.285156 1459.804688 3259.808594 1434.28125 3291.179688 1434.28125 C 3322.550781 1434.28125 3348.074219 1459.804688 3348.074219 1491.175781 C 3348.074219 1502.835938 3340.507812 1520.320312 3325.585938 1543.148438 C 3313.761719 1561.238281 3300.027344 1578.527344 3291.179688 1589.5625 C 3273.535156 1567.515625 3234.285156 1517.410156 3234.285156 1491.175781 Z M 3288.832031 1596.25 C 3289.40625 1596.960938 3290.265625 1597.375 3291.179688 1597.375 C 3292.089844 1597.375 3292.953125 1596.960938 3293.523438 1596.25 L 3294.410156 1595.144531 C 3296.335938 1592.746094 3298.539062 1590 3300.9375 1586.972656 C 3315.882812 1588.246094 3321.871094 1591.898438 3322.359375 1593.144531 C 3322.113281 1593.738281 3320.117188 1595.589844 3313.683594 1597.265625 C 3307.582031 1598.851562 3299.589844 1599.726562 3291.179688 1599.726562 C 3282.769531 1599.726562 3274.777344 1598.851562 3268.675781 1597.265625 C 3262.242188 1595.589844 3260.246094 1593.738281 3260 1593.144531 C 3260.484375 1591.898438 3266.480469 1588.242188 3281.4375 1586.972656 C 3284.25 1590.535156 3286.765625 1593.671875 3288.832031 1596.25 Z M 3343.820312 1607.851562 C 3329.800781 1612.273438 3311.105469 1614.707031 3291.179688 1614.707031 C 3271.25 1614.707031 3252.554688 1612.273438 3238.539062 1607.851562 C 3225.96875 1603.886719 3218.460938 1598.644531 3218.460938 1593.832031 C 3218.460938 1586.167969 3238.171875 1576.679688 3271.257812 1573.804688 C 3273.253906 1576.449219 3275.203125 1578.988281 3277.066406 1581.390625 C 3268.023438 1582.523438 3253.972656 1585.507812 3253.972656 1593.144531 C 3253.972656 1603.085938 3277.359375 1605.738281 3291.179688 1605.738281 C 3305 1605.738281 3328.386719 1603.085938 3328.386719 1593.144531 C 3328.386719 1585.519531 3314.367188 1582.527344 3305.328125 1581.394531 C 3307.207031 1578.984375 3309.164062 1576.449219 3311.167969 1573.808594 C 3344.210938 1576.695312 3363.898438 1586.175781 3363.898438 1593.832031 C 3363.898438 1598.644531 3356.390625 1603.886719 3343.820312 1607.851562 Z M 3323.207031 1491.101562 C 3323.207031 1473.441406 3308.839844 1459.074219 3291.179688 1459.074219 C 3273.519531 1459.074219 3259.148438 1473.441406 3259.148438 1491.101562 C 3259.148438 1508.765625 3273.519531 1523.132812 3291.179688 1523.132812 C 3308.839844 1523.132812 3323.207031 1508.765625 3323.207031 1491.101562 Z M 3291.179688 1517.117188 C 3276.835938 1517.117188 3265.164062 1505.449219 3265.164062 1491.101562 C 3265.164062 1476.757812 3276.835938 1465.089844 3291.179688 1465.089844 C 3305.523438 1465.089844 3317.195312 1476.757812 3317.195312 1491.101562 C 3317.195312 1505.449219 3305.523438 1517.117188 3291.179688 1517.117188 Z M 3291.179688 1517.117188 " fill-opacity="1" fill-rule="nonzero"/></g><g clip-path="url(#baad7c6c0f)"><path fill="#466b66" d="M 2067.492188 779.75 C 2058.082031 775.992188 2045.320312 773.167969 2031.125 771.671875 C 2049.488281 746.902344 2069.816406 715.324219 2069.816406 694.671875 C 2069.816406 659.984375 2041.59375 631.765625 2006.90625 631.765625 C 1972.21875 631.765625 1944 659.984375 1944 694.671875 C 1944 707.398438 1952 726.078125 1967.78125 750.203125 C 1972.621094 757.601562 1977.777344 764.890625 1982.777344 771.664062 C 1968.558594 773.15625 1955.773438 775.980469 1946.347656 779.742188 C 1931.328125 785.734375 1928.175781 792.613281 1928.175781 797.328125 C 1928.175781 814.792969 1968.738281 824.21875 2006.90625 824.21875 C 2045.074219 824.21875 2085.640625 814.792969 2085.640625 797.328125 C 2085.640625 792.617188 2082.492188 785.742188 2067.492188 779.75 Z M 1950.015625 694.671875 C 1950.015625 663.300781 1975.535156 637.78125 2006.90625 637.78125 C 2038.277344 637.78125 2063.800781 663.300781 2063.800781 694.671875 C 2063.800781 706.332031 2056.234375 723.820312 2041.316406 746.644531 C 2029.488281 764.734375 2015.757812 782.027344 2006.910156 793.058594 C 1989.265625 771.011719 1950.015625 720.90625 1950.015625 694.671875 Z M 2004.5625 799.746094 C 2005.132812 800.457031 2005.996094 800.871094 2006.90625 800.871094 C 2007.820312 800.871094 2008.683594 800.457031 2009.253906 799.746094 L 2010.140625 798.640625 C 2012.066406 796.242188 2014.269531 793.496094 2016.667969 790.472656 C 2031.613281 791.742188 2037.601562 795.398438 2038.085938 796.640625 C 2037.839844 797.234375 2035.84375 799.085938 2029.410156 800.761719 C 2023.308594 802.347656 2015.316406 803.222656 2006.90625 803.222656 C 1998.496094 803.222656 1990.503906 802.347656 1984.402344 800.761719 C 1977.96875 799.085938 1975.976562 797.238281 1975.726562 796.640625 C 1976.214844 795.394531 1982.207031 791.738281 1997.164062 790.46875 C 1999.976562 794.03125 2002.492188 797.167969 2004.5625 799.746094 Z M 2059.546875 811.347656 C 2045.53125 815.769531 2026.835938 818.203125 2006.90625 818.203125 C 1986.980469 818.203125 1968.285156 815.769531 1954.265625 811.347656 C 1941.695312 807.382812 1934.191406 802.140625 1934.191406 797.328125 C 1934.191406 789.664062 1953.898438 780.179688 1986.984375 777.300781 C 1988.984375 779.945312 1990.929688 782.484375 1992.796875 784.886719 C 1983.75 786.019531 1969.703125 789.007812 1969.703125 796.644531 C 1969.703125 806.585938 1993.089844 809.238281 2006.90625 809.238281 C 2020.726562 809.238281 2044.113281 806.585938 2044.113281 796.644531 C 2044.113281 789.015625 2030.09375 786.027344 2021.054688 784.894531 C 2022.9375 782.484375 2024.894531 779.945312 2026.898438 777.304688 C 2059.941406 780.191406 2079.625 789.671875 2079.625 797.328125 C 2079.625 802.144531 2072.121094 807.382812 2059.546875 811.347656 Z M 2038.9375 694.601562 C 2038.9375 676.941406 2024.566406 662.570312 2006.90625 662.570312 C 1989.246094 662.570312 1974.878906 676.941406 1974.878906 694.601562 C 1974.878906 712.261719 1989.246094 726.628906 2006.90625 726.628906 C 2024.566406 726.628906 2038.9375 712.261719 2038.9375 694.601562 Z M 2006.90625 720.617188 C 1992.5625 720.617188 1980.890625 708.945312 1980.890625 694.601562 C 1980.890625 680.257812 1992.5625 668.585938 2006.90625 668.585938 C 2021.25 668.585938 2032.921875 680.257812 2032.921875 694.601562 C 2032.921875 708.945312 2021.253906 720.617188 2006.90625 720.617188 Z M 2006.90625 720.617188 " fill-opacity="1" fill-rule="nonzero"/></g><g clip-path="url(#2b81edbb2e)"><path fill="#466b66" d="M 1451.207031 1235.976562 C 1441.796875 1232.21875 1429.035156 1229.394531 1414.839844 1227.898438 C 1433.203125 1203.128906 1453.53125 1171.550781 1453.53125 1150.898438 C 1453.53125 1116.210938 1425.308594 1087.992188 1390.621094 1087.992188 C 1355.933594 1087.992188 1327.714844 1116.210938 1327.714844 1150.898438 C 1327.714844 1163.621094 1335.714844 1182.304688 1351.496094 1206.429688 C 1356.335938 1213.828125 1361.492188 1221.117188 1366.492188 1227.890625 C 1352.273438 1229.382812 1339.488281 1232.203125 1330.0625 1235.964844 C 1315.042969 1241.960938 1311.890625 1248.839844 1311.890625 1253.554688 C 1311.890625 1271.019531 1352.457031 1280.445312 1390.621094 1280.445312 C 1428.789062 1280.445312 1469.355469 1271.019531 1469.355469 1253.554688 C 1469.355469 1248.84375 1466.207031 1241.96875 1451.207031 1235.976562 Z M 1333.730469 1150.898438 C 1333.730469 1119.527344 1359.25 1094.003906 1390.621094 1094.003906 C 1421.992188 1094.003906 1447.515625 1119.527344 1447.515625 1150.898438 C 1447.515625 1162.558594 1439.953125 1180.042969 1425.03125 1202.871094 C 1413.207031 1220.960938 1399.472656 1238.25 1390.625 1249.285156 C 1372.980469 1227.238281 1333.730469 1177.132812 1333.730469 1150.898438 Z M 1388.277344 1255.972656 C 1388.847656 1256.683594 1389.710938 1257.097656 1390.621094 1257.097656 C 1391.535156 1257.097656 1392.398438 1256.683594 1392.96875 1255.972656 L 1393.855469 1254.867188 C 1395.78125 1252.46875 1397.984375 1249.722656 1400.382812 1246.695312 C 1415.328125 1247.96875 1421.316406 1251.621094 1421.804688 1252.867188 C 1421.554688 1253.460938 1419.558594 1255.3125 1413.125 1256.988281 C 1407.023438 1258.574219 1399.03125 1259.449219 1390.621094 1259.449219 C 1382.210938 1259.449219 1374.21875 1258.574219 1368.117188 1256.988281 C 1361.6875 1255.3125 1359.691406 1253.460938 1359.441406 1252.867188 C 1359.929688 1251.621094 1365.921875 1247.964844 1380.878906 1246.695312 C 1383.691406 1250.257812 1386.207031 1253.394531 1388.277344 1255.972656 Z M 1443.261719 1267.574219 C 1429.246094 1271.996094 1410.550781 1274.429688 1390.621094 1274.429688 C 1370.695312 1274.429688 1352 1271.996094 1337.980469 1267.574219 C 1325.410156 1263.609375 1317.90625 1258.367188 1317.90625 1253.554688 C 1317.90625 1245.890625 1337.613281 1236.402344 1370.699219 1233.527344 C 1372.699219 1236.171875 1374.648438 1238.710938 1376.511719 1241.113281 C 1367.464844 1242.246094 1353.417969 1245.230469 1353.417969 1252.867188 C 1353.417969 1262.808594 1376.804688 1265.464844 1390.625 1265.464844 C 1404.441406 1265.464844 1427.828125 1262.808594 1427.828125 1252.867188 C 1427.828125 1245.242188 1413.808594 1242.25 1404.769531 1241.117188 C 1406.652344 1238.707031 1408.609375 1236.171875 1410.613281 1233.53125 C 1443.65625 1236.417969 1463.339844 1245.898438 1463.339844 1253.554688 C 1463.339844 1258.367188 1455.835938 1263.609375 1443.261719 1267.574219 Z M 1422.652344 1150.828125 C 1422.652344 1133.167969 1408.285156 1118.796875 1390.621094 1118.796875 C 1372.960938 1118.796875 1358.59375 1133.167969 1358.59375 1150.828125 C 1358.59375 1168.488281 1372.960938 1182.855469 1390.621094 1182.855469 C 1408.285156 1182.855469 1422.652344 1168.488281 1422.652344 1150.828125 Z M 1390.621094 1176.839844 C 1376.277344 1176.839844 1364.609375 1165.171875 1364.609375 1150.828125 C 1364.609375 1136.480469 1376.277344 1124.8125 1390.621094 1124.8125 C 1404.96875 1124.8125 1416.636719 1136.480469 1416.636719 1150.828125 C 1416.636719 1165.171875 1404.96875 1176.839844 1390.621094 1176.839844 Z M 1390.621094 1176.839844 " fill-opacity="1" fill-rule="nonzero"/></g><g clip-path="url(#c114c14f38)"><path fill="#466b66" d="M 2480.105469 1006.917969 C 2470.695312 1003.160156 2457.933594 1000.335938 2443.738281 998.84375 C 2462.101562 974.070312 2482.429688 942.492188 2482.429688 921.84375 C 2482.429688 887.152344 2454.210938 858.933594 2419.519531 858.933594 C 2384.832031 858.933594 2356.613281 887.152344 2356.613281 921.84375 C 2356.613281 934.566406 2364.613281 953.246094 2380.394531 977.371094 C 2385.234375 984.769531 2390.390625 992.0625 2395.390625 998.832031 C 2381.171875 1000.324219 2368.386719 1003.148438 2358.960938 1006.910156 C 2343.941406 1012.902344 2340.789062 1019.78125 2340.789062 1024.496094 C 2340.789062 1041.960938 2381.355469 1051.386719 2419.519531 1051.386719 C 2457.6875 1051.386719 2498.253906 1041.960938 2498.253906 1024.496094 C 2498.253906 1019.785156 2495.105469 1012.910156 2480.105469 1006.917969 Z M 2362.628906 921.84375 C 2362.628906 890.46875 2388.148438 864.949219 2419.519531 864.949219 C 2450.894531 864.949219 2476.414062 890.46875 2476.414062 921.84375 C 2476.414062 933.5 2468.851562 950.988281 2453.929688 973.8125 C 2442.105469 991.902344 2428.371094 1009.195312 2419.523438 1020.226562 C 2401.878906 998.179688 2362.628906 948.074219 2362.628906 921.84375 Z M 2417.175781 1026.914062 C 2417.746094 1027.625 2418.609375 1028.039062 2419.519531 1028.039062 C 2420.433594 1028.039062 2421.296875 1027.625 2421.867188 1026.914062 L 2422.753906 1025.808594 C 2424.679688 1023.410156 2426.882812 1020.664062 2429.28125 1017.640625 C 2444.226562 1018.910156 2450.214844 1022.566406 2450.703125 1023.8125 C 2450.453125 1024.40625 2448.457031 1026.253906 2442.023438 1027.929688 C 2435.921875 1029.515625 2427.933594 1030.390625 2419.519531 1030.390625 C 2411.109375 1030.390625 2403.121094 1029.515625 2397.015625 1027.929688 C 2390.585938 1026.253906 2388.589844 1024.40625 2388.339844 1023.8125 C 2388.828125 1022.5625 2394.820312 1018.90625 2409.777344 1017.636719 C 2412.589844 1021.199219 2415.105469 1024.335938 2417.175781 1026.914062 Z M 2472.160156 1038.515625 C 2458.144531 1042.9375 2439.449219 1045.371094 2419.519531 1045.371094 C 2399.59375 1045.371094 2380.898438 1042.9375 2366.878906 1038.515625 C 2354.308594 1034.550781 2346.804688 1029.3125 2346.804688 1024.496094 C 2346.804688 1016.832031 2366.511719 1007.347656 2399.597656 1004.46875 C 2401.597656 1007.113281 2403.546875 1009.652344 2405.410156 1012.058594 C 2396.363281 1013.1875 2382.316406 1016.175781 2382.316406 1023.8125 C 2382.316406 1033.753906 2405.703125 1036.40625 2419.523438 1036.40625 C 2433.339844 1036.40625 2456.726562 1033.753906 2456.726562 1023.8125 C 2456.726562 1016.183594 2442.707031 1013.195312 2433.667969 1012.0625 C 2435.550781 1009.652344 2437.507812 1007.113281 2439.511719 1004.476562 C 2472.554688 1007.359375 2492.238281 1016.839844 2492.238281 1024.496094 C 2492.238281 1029.3125 2484.734375 1034.550781 2472.160156 1038.515625 Z M 2451.550781 921.769531 C 2451.550781 904.109375 2437.183594 889.742188 2419.519531 889.742188 C 2401.859375 889.742188 2387.492188 904.109375 2387.492188 921.769531 C 2387.492188 939.429688 2401.859375 953.796875 2419.519531 953.796875 C 2437.183594 953.796875 2451.550781 939.429688 2451.550781 921.769531 Z M 2419.519531 947.785156 C 2405.175781 947.785156 2393.507812 936.113281 2393.507812 921.769531 C 2393.507812 907.425781 2405.175781 895.753906 2419.519531 895.753906 C 2433.867188 895.753906 2445.535156 907.425781 2445.535156 921.769531 C 2445.535156 936.113281 2433.867188 947.785156 2419.519531 947.785156 Z M 2419.519531 947.785156 " fill-opacity="1" fill-rule="nonzero"/></g><g fill="#466b66" fill-opacity="1"><g transform="translate(2118.245356, 807.549826)"><g><path d="M 37.515625 -68.03125 C 43.535156 -68.03125 48.765625 -67.023438 53.203125 -65.015625 C 57.648438 -63.003906 61.070312 -60.148438 63.46875 -56.453125 C 65.863281 -52.765625 67.0625 -48.394531 67.0625 -43.34375 C 67.0625 -38.351562 65.863281 -33.992188 63.46875 -30.265625 C 61.070312 -26.546875 57.648438 -23.695312 53.203125 -21.71875 C 48.765625 -19.738281 43.535156 -18.75 37.515625 -18.75 L 23.8125 -18.75 L 23.8125 0 L 8.0625 0 L 8.0625 -68.03125 Z M 36.640625 -31.59375 C 41.367188 -31.59375 44.960938 -32.609375 47.421875 -34.640625 C 49.890625 -36.679688 51.125 -39.582031 51.125 -43.34375 C 51.125 -47.164062 49.890625 -50.097656 47.421875 -52.140625 C 44.960938 -54.179688 41.367188 -55.203125 36.640625 -55.203125 L 23.8125 -55.203125 L 23.8125 -31.59375 Z M 36.640625 -31.59375 "/></g></g></g><g fill="#466b66" fill-opacity="1"><g transform="translate(2189.371984, 807.549826)"><g><path d="M 28.09375 -53.0625 C 36.1875 -53.0625 42.40625 -51.132812 46.75 -47.28125 C 51.09375 -43.425781 53.265625 -37.613281 53.265625 -29.84375 L 53.265625 0 L 39.0625 0 L 39.0625 -6.515625 C 36.21875 -1.648438 30.90625 0.78125 23.125 0.78125 C 19.113281 0.78125 15.632812 0.101562 12.6875 -1.25 C 9.738281 -2.613281 7.484375 -4.492188 5.921875 -6.890625 C 4.367188 -9.296875 3.59375 -12.019531 3.59375 -15.0625 C 3.59375 -19.925781 5.421875 -23.75 9.078125 -26.53125 C 12.742188 -29.320312 18.398438 -30.71875 26.046875 -30.71875 L 38.09375 -30.71875 C 38.09375 -34.019531 37.085938 -36.5625 35.078125 -38.34375 C 33.078125 -40.125 30.066406 -41.015625 26.046875 -41.015625 C 23.265625 -41.015625 20.523438 -40.578125 17.828125 -39.703125 C 15.140625 -38.828125 12.859375 -37.644531 10.984375 -36.15625 L 5.546875 -46.75 C 8.390625 -48.757812 11.800781 -50.3125 15.78125 -51.40625 C 19.769531 -52.507812 23.875 -53.0625 28.09375 -53.0625 Z M 26.921875 -9.421875 C 29.515625 -9.421875 31.8125 -10.019531 33.8125 -11.21875 C 35.820312 -12.414062 37.25 -14.179688 38.09375 -16.515625 L 38.09375 -21.875 L 27.703125 -21.875 C 21.484375 -21.875 18.375 -19.832031 18.375 -15.75 C 18.375 -13.800781 19.132812 -12.257812 20.65625 -11.125 C 22.175781 -9.988281 24.265625 -9.421875 26.921875 -9.421875 Z M 26.921875 -9.421875 "/></g></g></g><g fill="#466b66" fill-opacity="1"><g transform="translate(2249.324322, 807.549826)"><g><path d="M 24.59375 0.78125 C 20.25 0.78125 16.003906 0.242188 11.859375 -0.828125 C 7.710938 -1.898438 4.40625 -3.242188 1.9375 -4.859375 L 7 -15.75 C 9.332031 -14.257812 12.148438 -13.039062 15.453125 -12.09375 C 18.753906 -11.15625 21.992188 -10.6875 25.171875 -10.6875 C 31.585938 -10.6875 34.796875 -12.273438 34.796875 -15.453125 C 34.796875 -16.941406 33.921875 -18.007812 32.171875 -18.65625 C 30.421875 -19.300781 27.734375 -19.851562 24.109375 -20.3125 C 19.828125 -20.957031 16.289062 -21.703125 13.5 -22.546875 C 10.71875 -23.390625 8.304688 -24.878906 6.265625 -27.015625 C 4.222656 -29.148438 3.203125 -32.195312 3.203125 -36.15625 C 3.203125 -39.457031 4.15625 -42.382812 6.0625 -44.9375 C 7.976562 -47.5 10.765625 -49.492188 14.421875 -50.921875 C 18.085938 -52.347656 22.414062 -53.0625 27.40625 -53.0625 C 31.101562 -53.0625 34.78125 -52.65625 38.4375 -51.84375 C 42.09375 -51.039062 45.125 -49.925781 47.53125 -48.5 L 42.46875 -37.703125 C 37.875 -40.296875 32.851562 -41.59375 27.40625 -41.59375 C 24.164062 -41.59375 21.734375 -41.140625 20.109375 -40.234375 C 18.492188 -39.328125 17.6875 -38.160156 17.6875 -36.734375 C 17.6875 -35.117188 18.5625 -33.984375 20.3125 -33.328125 C 22.0625 -32.679688 24.847656 -32.066406 28.671875 -31.484375 C 32.941406 -30.773438 36.4375 -30.015625 39.15625 -29.203125 C 41.882812 -28.390625 44.253906 -26.914062 46.265625 -24.78125 C 48.273438 -22.644531 49.28125 -19.664062 49.28125 -15.84375 C 49.28125 -12.601562 48.304688 -9.71875 46.359375 -7.1875 C 44.410156 -4.664062 41.570312 -2.707031 37.84375 -1.3125 C 34.125 0.0820312 29.707031 0.78125 24.59375 0.78125 Z M 24.59375 0.78125 "/></g></g></g><g fill="#466b66" fill-opacity="1"><g transform="translate(2300.920253, 807.549826)"><g><path d="M 24.59375 0.78125 C 20.25 0.78125 16.003906 0.242188 11.859375 -0.828125 C 7.710938 -1.898438 4.40625 -3.242188 1.9375 -4.859375 L 7 -15.75 C 9.332031 -14.257812 12.148438 -13.039062 15.453125 -12.09375 C 18.753906 -11.15625 21.992188 -10.6875 25.171875 -10.6875 C 31.585938 -10.6875 34.796875 -12.273438 34.796875 -15.453125 C 34.796875 -16.941406 33.921875 -18.007812 32.171875 -18.65625 C 30.421875 -19.300781 27.734375 -19.851562 24.109375 -20.3125 C 19.828125 -20.957031 16.289062 -21.703125 13.5 -22.546875 C 10.71875 -23.390625 8.304688 -24.878906 6.265625 -27.015625 C 4.222656 -29.148438 3.203125 -32.195312 3.203125 -36.15625 C 3.203125 -39.457031 4.15625 -42.382812 6.0625 -44.9375 C 7.976562 -47.5 10.765625 -49.492188 14.421875 -50.921875 C 18.085938 -52.347656 22.414062 -53.0625 27.40625 -53.0625 C 31.101562 -53.0625 34.78125 -52.65625 38.4375 -51.84375 C 42.09375 -51.039062 45.125 -49.925781 47.53125 -48.5 L 42.46875 -37.703125 C 37.875 -40.296875 32.851562 -41.59375 27.40625 -41.59375 C 24.164062 -41.59375 21.734375 -41.140625 20.109375 -40.234375 C 18.492188 -39.328125 17.6875 -38.160156 17.6875 -36.734375 C 17.6875 -35.117188 18.5625 -33.984375 20.3125 -33.328125 C 22.0625 -32.679688 24.847656 -32.066406 28.671875 -31.484375 C 32.941406 -30.773438 36.4375 -30.015625 39.15625 -29.203125 C 41.882812 -28.390625 44.253906 -26.914062 46.265625 -24.78125 C 48.273438 -22.644531 49.28125 -19.664062 49.28125 -15.84375 C 49.28125 -12.601562 48.304688 -9.71875 46.359375 -7.1875 C 44.410156 -4.664062 41.570312 -2.707031 37.84375 -1.3125 C 34.125 0.0820312 29.707031 0.78125 24.59375 0.78125 Z M 24.59375 0.78125 "/></g></g></g><g fill="#466b66" fill-opacity="1"><g transform="translate(2352.516185, 807.549826)"><g><path d="M 31.875 0.78125 C 26.363281 0.78125 21.421875 -0.367188 17.046875 -2.671875 C 12.679688 -4.972656 9.265625 -8.164062 6.796875 -12.25 C 4.335938 -16.332031 3.109375 -20.960938 3.109375 -26.140625 C 3.109375 -31.328125 4.335938 -35.960938 6.796875 -40.046875 C 9.265625 -44.128906 12.679688 -47.316406 17.046875 -49.609375 C 21.421875 -51.910156 26.363281 -53.0625 31.875 -53.0625 C 37.382812 -53.0625 42.304688 -51.910156 46.640625 -49.609375 C 50.984375 -47.316406 54.382812 -44.128906 56.84375 -40.046875 C 59.3125 -35.960938 60.546875 -31.328125 60.546875 -26.140625 C 60.546875 -20.960938 59.3125 -16.332031 56.84375 -12.25 C 54.382812 -8.164062 50.984375 -4.972656 46.640625 -2.671875 C 42.304688 -0.367188 37.382812 0.78125 31.875 0.78125 Z M 31.875 -11.65625 C 35.757812 -11.65625 38.945312 -12.96875 41.4375 -15.59375 C 43.9375 -18.21875 45.1875 -21.734375 45.1875 -26.140625 C 45.1875 -30.546875 43.9375 -34.0625 41.4375 -36.6875 C 38.945312 -39.3125 35.757812 -40.625 31.875 -40.625 C 27.988281 -40.625 24.78125 -39.3125 22.25 -36.6875 C 19.726562 -34.0625 18.46875 -30.546875 18.46875 -26.140625 C 18.46875 -21.734375 19.726562 -18.21875 22.25 -15.59375 C 24.78125 -12.96875 27.988281 -11.65625 31.875 -11.65625 Z M 31.875 -11.65625 "/></g></g></g><g fill="#466b66" fill-opacity="1"><g transform="translate(2416.160871, 807.549826)"><g/></g></g><g fill="#466b66" fill-opacity="1"><g transform="translate(2443.659291, 807.549826)"><g><path d="M 23.8125 -55.390625 L 23.8125 -37.421875 L 55.296875 -37.421875 L 55.296875 -24.78125 L 23.8125 -24.78125 L 23.8125 0 L 8.0625 0 L 8.0625 -68.03125 L 59.484375 -68.03125 L 59.484375 -55.390625 Z M 23.8125 -55.390625 "/></g></g></g><g fill="#466b66" fill-opacity="1"><g transform="translate(2505.749317, 807.549826)"><g><path d="M 59.671875 -52.28125 L 59.671875 0 L 45.296875 0 L 45.296875 -6.21875 C 43.285156 -3.945312 40.882812 -2.210938 38.09375 -1.015625 C 35.3125 0.179688 32.300781 0.78125 29.0625 0.78125 C 22.1875 0.78125 16.738281 -1.191406 12.71875 -5.140625 C 8.707031 -9.097656 6.703125 -14.960938 6.703125 -22.734375 L 6.703125 -52.28125 L 21.875 -52.28125 L 21.875 -24.984375 C 21.875 -16.554688 25.398438 -12.34375 32.453125 -12.34375 C 36.085938 -12.34375 39.003906 -13.523438 41.203125 -15.890625 C 43.410156 -18.253906 44.515625 -21.769531 44.515625 -26.4375 L 44.515625 -52.28125 Z M 59.671875 -52.28125 "/></g></g></g><g fill="#466b66" fill-opacity="1"><g transform="translate(2572.5034, 807.549826)"><g><path d="M 38.78125 -53.0625 C 45.257812 -53.0625 50.488281 -51.117188 54.46875 -47.234375 C 58.457031 -43.347656 60.453125 -37.582031 60.453125 -29.9375 L 60.453125 0 L 45.296875 0 L 45.296875 -27.59375 C 45.296875 -31.75 44.382812 -34.84375 42.5625 -36.875 C 40.75 -38.914062 38.128906 -39.9375 34.703125 -39.9375 C 30.878906 -39.9375 27.832031 -38.753906 25.5625 -36.390625 C 23.289062 -34.023438 22.15625 -30.515625 22.15625 -25.859375 L 22.15625 0 L 7 0 L 7 -52.28125 L 21.484375 -52.28125 L 21.484375 -46.171875 C 23.484375 -48.367188 25.972656 -50.066406 28.953125 -51.265625 C 31.941406 -52.460938 35.21875 -53.0625 38.78125 -53.0625 Z M 38.78125 -53.0625 "/></g></g></g><g fill="#466b66" fill-opacity="1"><g transform="translate(2639.646167, 807.549826)"><g><path d="M 60.25 -72.109375 L 60.25 0 L 45.78125 0 L 45.78125 -6.03125 C 42.019531 -1.488281 36.578125 0.78125 29.453125 0.78125 C 24.523438 0.78125 20.066406 -0.316406 16.078125 -2.515625 C 12.097656 -4.722656 8.972656 -7.867188 6.703125 -11.953125 C 4.429688 -16.035156 3.296875 -20.765625 3.296875 -26.140625 C 3.296875 -31.515625 4.429688 -36.242188 6.703125 -40.328125 C 8.972656 -44.410156 12.097656 -47.550781 16.078125 -49.75 C 20.066406 -51.957031 24.523438 -53.0625 29.453125 -53.0625 C 36.117188 -53.0625 41.332031 -50.957031 45.09375 -46.75 L 45.09375 -72.109375 Z M 32.078125 -11.65625 C 35.898438 -11.65625 39.070312 -12.96875 41.59375 -15.59375 C 44.125 -18.21875 45.390625 -21.734375 45.390625 -26.140625 C 45.390625 -30.546875 44.125 -34.0625 41.59375 -36.6875 C 39.070312 -39.3125 35.898438 -40.625 32.078125 -40.625 C 28.179688 -40.625 24.96875 -39.3125 22.4375 -36.6875 C 19.914062 -34.0625 18.65625 -30.546875 18.65625 -26.140625 C 18.65625 -21.734375 19.914062 -18.21875 22.4375 -15.59375 C 24.96875 -12.96875 28.179688 -11.65625 32.078125 -11.65625 Z M 32.078125 -11.65625 "/></g></g></g><g fill="#466b66" fill-opacity="1"><g transform="translate(2706.886105, 807.549826)"><g><path d="M 31.875 0.78125 C 26.363281 0.78125 21.421875 -0.367188 17.046875 -2.671875 C 12.679688 -4.972656 9.265625 -8.164062 6.796875 -12.25 C 4.335938 -16.332031 3.109375 -20.960938 3.109375 -26.140625 C 3.109375 -31.328125 4.335938 -35.960938 6.796875 -40.046875 C 9.265625 -44.128906 12.679688 -47.316406 17.046875 -49.609375 C 21.421875 -51.910156 26.363281 -53.0625 31.875 -53.0625 C 37.382812 -53.0625 42.304688 -51.910156 46.640625 -49.609375 C 50.984375 -47.316406 54.382812 -44.128906 56.84375 -40.046875 C 59.3125 -35.960938 60.546875 -31.328125 60.546875 -26.140625 C 60.546875 -20.960938 59.3125 -16.332031 56.84375 -12.25 C 54.382812 -8.164062 50.984375 -4.972656 46.640625 -2.671875 C 42.304688 -0.367188 37.382812 0.78125 31.875 0.78125 Z M 31.875 -11.65625 C 35.757812 -11.65625 38.945312 -12.96875 41.4375 -15.59375 C 43.9375 -18.21875 45.1875 -21.734375 45.1875 -26.140625 C 45.1875 -30.546875 43.9375 -34.0625 41.4375 -36.6875 C 38.945312 -39.3125 35.757812 -40.625 31.875 -40.625 C 27.988281 -40.625 24.78125 -39.3125 22.25 -36.6875 C 19.726562 -34.0625 18.46875 -30.546875 18.46875 -26.140625 C 18.46875 -21.734375 19.726562 -18.21875 22.25 -15.59375 C 24.78125 -12.96875 27.988281 -11.65625 31.875 -11.65625 Z M 31.875 -11.65625 "/></g></g></g><g fill="#466b66" fill-opacity="1"><g transform="translate(2407.12491, 393.406459)"><g><path d="M 60.75 -12.640625 L 60.75 0 L 8.0625 0 L 8.0625 -68.03125 L 59.484375 -68.03125 L 59.484375 -55.390625 L 23.71875 -55.390625 L 23.71875 -40.625 L 55.296875 -40.625 L 55.296875 -28.375 L 23.71875 -28.375 L 23.71875 -12.640625 Z M 60.75 -12.640625 "/></g></g></g><g fill="#466b66" fill-opacity="1"><g transform="translate(2472.324332, 393.406459)"><g><path d="M 21.484375 -45.390625 C 23.296875 -47.910156 25.738281 -49.816406 28.8125 -51.109375 C 31.894531 -52.410156 35.441406 -53.0625 39.453125 -53.0625 L 39.453125 -39.0625 C 37.773438 -39.195312 36.644531 -39.265625 36.0625 -39.265625 C 31.71875 -39.265625 28.3125 -38.046875 25.84375 -35.609375 C 23.382812 -33.179688 22.15625 -29.539062 22.15625 -24.6875 L 22.15625 0 L 7 0 L 7 -52.28125 L 21.484375 -52.28125 Z M 21.484375 -45.390625 "/></g></g></g><g fill="#466b66" fill-opacity="1"><g transform="translate(2514.203536, 393.406459)"><g><path d="M 58.21875 -25.953125 C 58.21875 -25.753906 58.117188 -24.394531 57.921875 -21.875 L 18.375 -21.875 C 19.082031 -18.632812 20.765625 -16.070312 23.421875 -14.1875 C 26.078125 -12.3125 29.378906 -11.375 33.328125 -11.375 C 36.054688 -11.375 38.472656 -11.773438 40.578125 -12.578125 C 42.679688 -13.390625 44.640625 -14.671875 46.453125 -16.421875 L 54.515625 -7.671875 C 49.597656 -2.035156 42.410156 0.78125 32.953125 0.78125 C 27.054688 0.78125 21.835938 -0.367188 17.296875 -2.671875 C 12.765625 -4.972656 9.265625 -8.164062 6.796875 -12.25 C 4.335938 -16.332031 3.109375 -20.960938 3.109375 -26.140625 C 3.109375 -31.265625 4.320312 -35.882812 6.75 -40 C 9.1875 -44.113281 12.523438 -47.316406 16.765625 -49.609375 C 21.003906 -51.910156 25.75 -53.0625 31 -53.0625 C 36.125 -53.0625 40.757812 -51.957031 44.90625 -49.75 C 49.050781 -47.550781 52.304688 -44.394531 54.671875 -40.28125 C 57.035156 -36.164062 58.21875 -31.390625 58.21875 -25.953125 Z M 31.09375 -41.59375 C 27.664062 -41.59375 24.785156 -40.617188 22.453125 -38.671875 C 20.117188 -36.734375 18.691406 -34.082031 18.171875 -30.71875 L 43.921875 -30.71875 C 43.410156 -34.019531 41.988281 -36.65625 39.65625 -38.625 C 37.320312 -40.601562 34.46875 -41.59375 31.09375 -41.59375 Z M 31.09375 -41.59375 "/></g></g></g><g fill="#466b66" fill-opacity="1"><g transform="translate(2575.516194, 393.406459)"><g><path d="M 32.265625 0.78125 C 26.691406 0.78125 21.6875 -0.367188 17.25 -2.671875 C 12.8125 -4.972656 9.34375 -8.164062 6.84375 -12.25 C 4.351562 -16.332031 3.109375 -20.960938 3.109375 -26.140625 C 3.109375 -31.328125 4.351562 -35.960938 6.84375 -40.046875 C 9.34375 -44.128906 12.8125 -47.316406 17.25 -49.609375 C 21.6875 -51.910156 26.691406 -53.0625 32.265625 -53.0625 C 37.773438 -53.0625 42.585938 -51.910156 46.703125 -49.609375 C 50.816406 -47.316406 53.8125 -44.03125 55.6875 -39.75 L 43.921875 -33.4375 C 41.203125 -38.226562 37.285156 -40.625 32.171875 -40.625 C 28.210938 -40.625 24.9375 -39.328125 22.34375 -36.734375 C 19.757812 -34.140625 18.46875 -30.609375 18.46875 -26.140625 C 18.46875 -21.671875 19.757812 -18.140625 22.34375 -15.546875 C 24.9375 -12.953125 28.210938 -11.65625 32.171875 -11.65625 C 37.347656 -11.65625 41.265625 -14.054688 43.921875 -18.859375 L 55.6875 -12.4375 C 53.8125 -8.289062 50.816406 -5.050781 46.703125 -2.71875 C 42.585938 -0.382812 37.773438 0.78125 32.265625 0.78125 Z M 32.265625 0.78125 "/></g></g></g><g fill="#466b66" fill-opacity="1"><g transform="translate(2632.94216, 393.406459)"><g><path d="M 38.78125 -53.0625 C 45.257812 -53.0625 50.488281 -51.117188 54.46875 -47.234375 C 58.457031 -43.347656 60.453125 -37.582031 60.453125 -29.9375 L 60.453125 0 L 45.296875 0 L 45.296875 -27.59375 C 45.296875 -31.75 44.382812 -34.84375 42.5625 -36.875 C 40.75 -38.914062 38.128906 -39.9375 34.703125 -39.9375 C 30.878906 -39.9375 27.832031 -38.753906 25.5625 -36.390625 C 23.289062 -34.023438 22.15625 -30.515625 22.15625 -25.859375 L 22.15625 0 L 7 0 L 7 -72.109375 L 22.15625 -72.109375 L 22.15625 -46.84375 C 24.164062 -48.851562 26.59375 -50.390625 29.4375 -51.453125 C 32.289062 -52.523438 35.40625 -53.0625 38.78125 -53.0625 Z M 38.78125 -53.0625 "/></g></g></g><g fill="#466b66" fill-opacity="1"><g transform="translate(2700.084927, 393.406459)"><g><path d="M 7 -52.28125 L 22.15625 -52.28125 L 22.15625 0 L 7 0 Z M 14.578125 -59.578125 C 11.796875 -59.578125 9.53125 -60.382812 7.78125 -62 C 6.03125 -63.625 5.15625 -65.632812 5.15625 -68.03125 C 5.15625 -70.425781 6.03125 -72.429688 7.78125 -74.046875 C 9.53125 -75.671875 11.796875 -76.484375 14.578125 -76.484375 C 17.359375 -76.484375 19.625 -75.707031 21.375 -74.15625 C 23.125 -72.601562 24 -70.660156 24 -68.328125 C 24 -65.796875 23.125 -63.703125 21.375 -62.046875 C 19.625 -60.398438 17.359375 -59.578125 14.578125 -59.578125 Z M 14.578125 -59.578125 "/></g></g></g><g fill="#466b66" fill-opacity="1"><g transform="translate(2729.332351, 393.406459)"><g><path d="M 73.953125 -53.0625 C 80.503906 -53.0625 85.707031 -51.132812 89.5625 -47.28125 C 93.414062 -43.425781 95.34375 -37.644531 95.34375 -29.9375 L 95.34375 0 L 80.1875 0 L 80.1875 -27.59375 C 80.1875 -31.75 79.328125 -34.84375 77.609375 -36.875 C 75.890625 -38.914062 73.441406 -39.9375 70.265625 -39.9375 C 66.703125 -39.9375 63.882812 -38.785156 61.8125 -36.484375 C 59.738281 -34.191406 58.703125 -30.773438 58.703125 -26.234375 L 58.703125 0 L 43.546875 0 L 43.546875 -27.59375 C 43.546875 -35.820312 40.238281 -39.9375 33.625 -39.9375 C 30.125 -39.9375 27.335938 -38.785156 25.265625 -36.484375 C 23.191406 -34.191406 22.15625 -30.773438 22.15625 -26.234375 L 22.15625 0 L 7 0 L 7 -52.28125 L 21.484375 -52.28125 L 21.484375 -46.265625 C 23.421875 -48.460938 25.796875 -50.144531 28.609375 -51.3125 C 31.429688 -52.476562 34.53125 -53.0625 37.90625 -53.0625 C 41.59375 -53.0625 44.925781 -52.332031 47.90625 -50.875 C 50.894531 -49.414062 53.296875 -47.296875 55.109375 -44.515625 C 57.242188 -47.234375 59.945312 -49.335938 63.21875 -50.828125 C 66.488281 -52.316406 70.066406 -53.0625 73.953125 -53.0625 Z M 73.953125 -53.0625 "/></g></g></g><g fill="#466b66" fill-opacity="1"><g transform="translate(1495.180083, 1270.914346)"><g><path d="M 30.421875 1.171875 C 25.046875 1.171875 19.847656 0.441406 14.828125 -1.015625 C 9.804688 -2.472656 5.769531 -4.367188 2.71875 -6.703125 L 8.0625 -18.5625 C 10.976562 -16.425781 14.441406 -14.707031 18.453125 -13.40625 C 22.472656 -12.113281 26.492188 -11.46875 30.515625 -11.46875 C 34.984375 -11.46875 38.285156 -12.128906 40.421875 -13.453125 C 42.566406 -14.785156 43.640625 -16.550781 43.640625 -18.75 C 43.640625 -20.375 43.003906 -21.71875 41.734375 -22.78125 C 40.472656 -23.851562 38.851562 -24.710938 36.875 -25.359375 C 34.90625 -26.015625 32.234375 -26.726562 28.859375 -27.5 C 23.679688 -28.726562 19.4375 -29.957031 16.125 -31.1875 C 12.820312 -32.425781 9.988281 -34.40625 7.625 -37.125 C 5.257812 -39.84375 4.078125 -43.472656 4.078125 -48.015625 C 4.078125 -51.960938 5.144531 -55.539062 7.28125 -58.75 C 9.425781 -61.957031 12.648438 -64.5 16.953125 -66.375 C 21.265625 -68.257812 26.53125 -69.203125 32.75 -69.203125 C 37.09375 -69.203125 41.335938 -68.679688 45.484375 -67.640625 C 49.628906 -66.609375 53.257812 -65.117188 56.375 -63.171875 L 51.515625 -51.21875 C 45.222656 -54.78125 38.9375 -56.5625 32.65625 -56.5625 C 28.25 -56.5625 24.992188 -55.847656 22.890625 -54.421875 C 20.785156 -52.992188 19.734375 -51.113281 19.734375 -48.78125 C 19.734375 -46.457031 20.945312 -44.726562 23.375 -43.59375 C 25.800781 -42.457031 29.507812 -41.335938 34.5 -40.234375 C 39.6875 -39.003906 43.929688 -37.773438 47.234375 -36.546875 C 50.535156 -35.316406 53.367188 -33.375 55.734375 -30.71875 C 58.097656 -28.0625 59.28125 -24.460938 59.28125 -19.921875 C 59.28125 -16.035156 58.191406 -12.488281 56.015625 -9.28125 C 53.847656 -6.070312 50.59375 -3.523438 46.25 -1.640625 C 41.914062 0.234375 36.640625 1.171875 30.421875 1.171875 Z M 30.421875 1.171875 "/></g></g></g><g fill="#466b66" fill-opacity="1"><g transform="translate(1557.172937, 1270.914346)"><g><path d="M 28.09375 -53.0625 C 36.1875 -53.0625 42.40625 -51.132812 46.75 -47.28125 C 51.09375 -43.425781 53.265625 -37.613281 53.265625 -29.84375 L 53.265625 0 L 39.0625 0 L 39.0625 -6.515625 C 36.21875 -1.648438 30.90625 0.78125 23.125 0.78125 C 19.113281 0.78125 15.632812 0.101562 12.6875 -1.25 C 9.738281 -2.613281 7.484375 -4.492188 5.921875 -6.890625 C 4.367188 -9.296875 3.59375 -12.019531 3.59375 -15.0625 C 3.59375 -19.925781 5.421875 -23.75 9.078125 -26.53125 C 12.742188 -29.320312 18.398438 -30.71875 26.046875 -30.71875 L 38.09375 -30.71875 C 38.09375 -34.019531 37.085938 -36.5625 35.078125 -38.34375 C 33.078125 -40.125 30.066406 -41.015625 26.046875 -41.015625 C 23.265625 -41.015625 20.523438 -40.578125 17.828125 -39.703125 C 15.140625 -38.828125 12.859375 -37.644531 10.984375 -36.15625 L 5.546875 -46.75 C 8.390625 -48.757812 11.800781 -50.3125 15.78125 -51.40625 C 19.769531 -52.507812 23.875 -53.0625 28.09375 -53.0625 Z M 26.921875 -9.421875 C 29.515625 -9.421875 31.8125 -10.019531 33.8125 -11.21875 C 35.820312 -12.414062 37.25 -14.179688 38.09375 -16.515625 L 38.09375 -21.875 L 27.703125 -21.875 C 21.484375 -21.875 18.375 -19.832031 18.375 -15.75 C 18.375 -13.800781 19.132812 -12.257812 20.65625 -11.125 C 22.175781 -9.988281 24.265625 -9.421875 26.921875 -9.421875 Z M 26.921875 -9.421875 "/></g></g></g><g fill="#466b66" fill-opacity="1"><g transform="translate(1617.125274, 1270.914346)"><g><path d="M 38.78125 -53.0625 C 45.257812 -53.0625 50.488281 -51.117188 54.46875 -47.234375 C 58.457031 -43.347656 60.453125 -37.582031 60.453125 -29.9375 L 60.453125 0 L 45.296875 0 L 45.296875 -27.59375 C 45.296875 -31.75 44.382812 -34.84375 42.5625 -36.875 C 40.75 -38.914062 38.128906 -39.9375 34.703125 -39.9375 C 30.878906 -39.9375 27.832031 -38.753906 25.5625 -36.390625 C 23.289062 -34.023438 22.15625 -30.515625 22.15625 -25.859375 L 22.15625 0 L 7 0 L 7 -52.28125 L 21.484375 -52.28125 L 21.484375 -46.171875 C 23.484375 -48.367188 25.972656 -50.066406 28.953125 -51.265625 C 31.941406 -52.460938 35.21875 -53.0625 38.78125 -53.0625 Z M 38.78125 -53.0625 "/></g></g></g><g fill="#466b66" fill-opacity="1"><g transform="translate(1684.268041, 1270.914346)"><g><path d="M 40.71875 -2.53125 C 39.226562 -1.425781 37.394531 -0.597656 35.21875 -0.046875 C 33.050781 0.503906 30.769531 0.78125 28.375 0.78125 C 22.15625 0.78125 17.34375 -0.804688 13.9375 -3.984375 C 10.539062 -7.160156 8.84375 -11.828125 8.84375 -17.984375 L 8.84375 -39.453125 L 0.78125 -39.453125 L 0.78125 -51.125 L 8.84375 -51.125 L 8.84375 -63.859375 L 24 -63.859375 L 24 -51.125 L 37.03125 -51.125 L 37.03125 -39.453125 L 24 -39.453125 L 24 -18.171875 C 24 -15.972656 24.566406 -14.273438 25.703125 -13.078125 C 26.835938 -11.878906 28.441406 -11.28125 30.515625 -11.28125 C 32.910156 -11.28125 34.953125 -11.925781 36.640625 -13.21875 Z M 40.71875 -2.53125 "/></g></g></g><g fill="#466b66" fill-opacity="1"><g transform="translate(1726.53593, 1270.914346)"><g><path d="M 28.09375 -53.0625 C 36.1875 -53.0625 42.40625 -51.132812 46.75 -47.28125 C 51.09375 -43.425781 53.265625 -37.613281 53.265625 -29.84375 L 53.265625 0 L 39.0625 0 L 39.0625 -6.515625 C 36.21875 -1.648438 30.90625 0.78125 23.125 0.78125 C 19.113281 0.78125 15.632812 0.101562 12.6875 -1.25 C 9.738281 -2.613281 7.484375 -4.492188 5.921875 -6.890625 C 4.367188 -9.296875 3.59375 -12.019531 3.59375 -15.0625 C 3.59375 -19.925781 5.421875 -23.75 9.078125 -26.53125 C 12.742188 -29.320312 18.398438 -30.71875 26.046875 -30.71875 L 38.09375 -30.71875 C 38.09375 -34.019531 37.085938 -36.5625 35.078125 -38.34375 C 33.078125 -40.125 30.066406 -41.015625 26.046875 -41.015625 C 23.265625 -41.015625 20.523438 -40.578125 17.828125 -39.703125 C 15.140625 -38.828125 12.859375 -37.644531 10.984375 -36.15625 L 5.546875 -46.75 C 8.390625 -48.757812 11.800781 -50.3125 15.78125 -51.40625 C 19.769531 -52.507812 23.875 -53.0625 28.09375 -53.0625 Z M 26.921875 -9.421875 C 29.515625 -9.421875 31.8125 -10.019531 33.8125 -11.21875 C 35.820312 -12.414062 37.25 -14.179688 38.09375 -16.515625 L 38.09375 -21.875 L 27.703125 -21.875 C 21.484375 -21.875 18.375 -19.832031 18.375 -15.75 C 18.375 -13.800781 19.132812 -12.257812 20.65625 -11.125 C 22.175781 -9.988281 24.265625 -9.421875 26.921875 -9.421875 Z M 26.921875 -9.421875 "/></g></g></g><g fill="#466b66" fill-opacity="1"><g transform="translate(1786.488268, 1270.914346)"><g/></g></g><g fill="#466b66" fill-opacity="1"><g transform="translate(1813.986688, 1270.914346)"><g><path d="M 69.96875 0 L 69.875 -40.8125 L 49.859375 -7.1875 L 42.765625 -7.1875 L 22.84375 -39.9375 L 22.84375 0 L 8.0625 0 L 8.0625 -68.03125 L 21.09375 -68.03125 L 46.546875 -25.75 L 71.625 -68.03125 L 84.546875 -68.03125 L 84.75 0 Z M 69.96875 0 "/></g></g></g><g fill="#466b66" fill-opacity="1"><g transform="translate(1906.781627, 1270.914346)"><g><path d="M 28.09375 -53.0625 C 36.1875 -53.0625 42.40625 -51.132812 46.75 -47.28125 C 51.09375 -43.425781 53.265625 -37.613281 53.265625 -29.84375 L 53.265625 0 L 39.0625 0 L 39.0625 -6.515625 C 36.21875 -1.648438 30.90625 0.78125 23.125 0.78125 C 19.113281 0.78125 15.632812 0.101562 12.6875 -1.25 C 9.738281 -2.613281 7.484375 -4.492188 5.921875 -6.890625 C 4.367188 -9.296875 3.59375 -12.019531 3.59375 -15.0625 C 3.59375 -19.925781 5.421875 -23.75 9.078125 -26.53125 C 12.742188 -29.320312 18.398438 -30.71875 26.046875 -30.71875 L 38.09375 -30.71875 C 38.09375 -34.019531 37.085938 -36.5625 35.078125 -38.34375 C 33.078125 -40.125 30.066406 -41.015625 26.046875 -41.015625 C 23.265625 -41.015625 20.523438 -40.578125 17.828125 -39.703125 C 15.140625 -38.828125 12.859375 -37.644531 10.984375 -36.15625 L 5.546875 -46.75 C 8.390625 -48.757812 11.800781 -50.3125 15.78125 -51.40625 C 19.769531 -52.507812 23.875 -53.0625 28.09375 -53.0625 Z M 26.921875 -9.421875 C 29.515625 -9.421875 31.8125 -10.019531 33.8125 -11.21875 C 35.820312 -12.414062 37.25 -14.179688 38.09375 -16.515625 L 38.09375 -21.875 L 27.703125 -21.875 C 21.484375 -21.875 18.375 -19.832031 18.375 -15.75 C 18.375 -13.800781 19.132812 -12.257812 20.65625 -11.125 C 22.175781 -9.988281 24.265625 -9.421875 26.921875 -9.421875 Z M 26.921875 -9.421875 "/></g></g></g><g fill="#466b66" fill-opacity="1"><g transform="translate(1966.733965, 1270.914346)"><g><path d="M 21.484375 -45.390625 C 23.296875 -47.910156 25.738281 -49.816406 28.8125 -51.109375 C 31.894531 -52.410156 35.441406 -53.0625 39.453125 -53.0625 L 39.453125 -39.0625 C 37.773438 -39.195312 36.644531 -39.265625 36.0625 -39.265625 C 31.71875 -39.265625 28.3125 -38.046875 25.84375 -35.609375 C 23.382812 -33.179688 22.15625 -29.539062 22.15625 -24.6875 L 22.15625 0 L 7 0 L 7 -52.28125 L 21.484375 -52.28125 Z M 21.484375 -45.390625 "/></g></g></g><g fill="#466b66" fill-opacity="1"><g transform="translate(2008.61317, 1270.914346)"><g><path d="M 7 -52.28125 L 22.15625 -52.28125 L 22.15625 0 L 7 0 Z M 14.578125 -59.578125 C 11.796875 -59.578125 9.53125 -60.382812 7.78125 -62 C 6.03125 -63.625 5.15625 -65.632812 5.15625 -68.03125 C 5.15625 -70.425781 6.03125 -72.429688 7.78125 -74.046875 C 9.53125 -75.671875 11.796875 -76.484375 14.578125 -76.484375 C 17.359375 -76.484375 19.625 -75.707031 21.375 -74.15625 C 23.125 -72.601562 24 -70.660156 24 -68.328125 C 24 -65.796875 23.125 -63.703125 21.375 -62.046875 C 19.625 -60.398438 17.359375 -59.578125 14.578125 -59.578125 Z M 14.578125 -59.578125 "/></g></g></g><g fill="#466b66" fill-opacity="1"><g transform="translate(2037.860593, 1270.914346)"><g><path d="M 28.09375 -53.0625 C 36.1875 -53.0625 42.40625 -51.132812 46.75 -47.28125 C 51.09375 -43.425781 53.265625 -37.613281 53.265625 -29.84375 L 53.265625 0 L 39.0625 0 L 39.0625 -6.515625 C 36.21875 -1.648438 30.90625 0.78125 23.125 0.78125 C 19.113281 0.78125 15.632812 0.101562 12.6875 -1.25 C 9.738281 -2.613281 7.484375 -4.492188 5.921875 -6.890625 C 4.367188 -9.296875 3.59375 -12.019531 3.59375 -15.0625 C 3.59375 -19.925781 5.421875 -23.75 9.078125 -26.53125 C 12.742188 -29.320312 18.398438 -30.71875 26.046875 -30.71875 L 38.09375 -30.71875 C 38.09375 -34.019531 37.085938 -36.5625 35.078125 -38.34375 C 33.078125 -40.125 30.066406 -41.015625 26.046875 -41.015625 C 23.265625 -41.015625 20.523438 -40.578125 17.828125 -39.703125 C 15.140625 -38.828125 12.859375 -37.644531 10.984375 -36.15625 L 5.546875 -46.75 C 8.390625 -48.757812 11.800781 -50.3125 15.78125 -51.40625 C 19.769531 -52.507812 23.875 -53.0625 28.09375 -53.0625 Z M 26.921875 -9.421875 C 29.515625 -9.421875 31.8125 -10.019531 33.8125 -11.21875 C 35.820312 -12.414062 37.25 -14.179688 38.09375 -16.515625 L 38.09375 -21.875 L 27.703125 -21.875 C 21.484375 -21.875 18.375 -19.832031 18.375 -15.75 C 18.375 -13.800781 19.132812 -12.257812 20.65625 -11.125 C 22.175781 -9.988281 24.265625 -9.421875 26.921875 -9.421875 Z M 26.921875 -9.421875 "/></g></g></g><g clip-path="url(#beadc4000f)"><path fill="#466b66" d="M 2302.015625 580.800781 C 2292.605469 577.042969 2279.84375 574.21875 2265.648438 572.722656 C 2284.011719 547.953125 2304.339844 516.375 2304.339844 495.722656 C 2304.339844 461.035156 2276.121094 432.816406 2241.429688 432.816406 C 2206.746094 432.816406 2178.523438 461.035156 2178.523438 495.722656 C 2178.523438 508.445312 2186.523438 527.128906 2202.304688 551.253906 C 2207.144531 558.652344 2212.300781 565.941406 2217.300781 572.714844 C 2203.082031 574.207031 2190.296875 577.027344 2180.871094 580.792969 C 2165.851562 586.785156 2162.699219 593.664062 2162.699219 598.378906 C 2162.699219 615.84375 2203.265625 625.269531 2241.429688 625.269531 C 2279.597656 625.269531 2320.164062 615.84375 2320.164062 598.378906 C 2320.164062 593.667969 2317.015625 586.792969 2302.015625 580.800781 Z M 2184.539062 495.722656 C 2184.539062 464.351562 2210.058594 438.828125 2241.429688 438.828125 C 2272.804688 438.828125 2298.324219 464.351562 2298.324219 495.722656 C 2298.324219 507.382812 2290.761719 524.867188 2275.839844 547.695312 C 2264.015625 565.785156 2250.28125 583.074219 2241.433594 594.109375 C 2223.789062 572.0625 2184.539062 521.957031 2184.539062 495.722656 Z M 2239.085938 600.796875 C 2239.65625 601.507812 2240.519531 601.921875 2241.429688 601.921875 C 2242.34375 601.921875 2243.207031 601.507812 2243.777344 600.796875 L 2244.664062 599.691406 C 2246.589844 597.292969 2248.792969 594.546875 2251.191406 591.519531 C 2266.136719 592.792969 2272.125 596.445312 2272.613281 597.691406 C 2272.363281 598.285156 2270.367188 600.136719 2263.933594 601.8125 C 2257.835938 603.398438 2249.84375 604.273438 2241.429688 604.273438 C 2233.019531 604.273438 2225.03125 603.398438 2218.925781 601.8125 C 2212.496094 600.136719 2210.5 598.285156 2210.25 597.691406 C 2210.738281 596.445312 2216.730469 592.789062 2231.6875 591.519531 C 2234.5 595.082031 2237.015625 598.21875 2239.085938 600.796875 Z M 2294.074219 612.398438 C 2280.054688 616.820312 2261.359375 619.253906 2241.429688 619.253906 C 2221.503906 619.253906 2202.808594 616.820312 2188.789062 612.398438 C 2176.21875 608.433594 2168.714844 603.191406 2168.714844 598.378906 C 2168.714844 590.714844 2188.421875 581.226562 2221.507812 578.351562 C 2223.507812 580.996094 2225.457031 583.535156 2227.320312 585.9375 C 2218.273438 587.070312 2204.226562 590.054688 2204.226562 597.695312 C 2204.226562 607.636719 2227.613281 610.289062 2241.433594 610.289062 C 2255.25 610.289062 2278.636719 607.636719 2278.636719 597.695312 C 2278.636719 590.066406 2264.617188 587.078125 2255.578125 585.941406 C 2257.460938 583.53125 2259.417969 580.996094 2261.421875 578.355469 C 2294.464844 581.242188 2314.148438 590.722656 2314.148438 598.378906 C 2314.148438 603.191406 2306.644531 608.433594 2294.074219 612.398438 Z M 2273.460938 495.652344 C 2273.460938 477.992188 2259.09375 463.621094 2241.429688 463.621094 C 2223.769531 463.621094 2209.402344 477.992188 2209.402344 495.652344 C 2209.402344 513.3125 2223.769531 527.679688 2241.429688 527.679688 C 2259.09375 527.679688 2273.460938 513.3125 2273.460938 495.652344 Z M 2241.429688 521.664062 C 2227.085938 521.664062 2215.417969 509.996094 2215.417969 495.652344 C 2215.417969 481.304688 2227.085938 469.636719 2241.429688 469.636719 C 2255.777344 469.636719 2267.445312 481.304688 2267.445312 495.652344 C 2267.445312 509.996094 2255.777344 521.664062 2241.429688 521.664062 Z M 2241.429688 521.664062 " fill-opacity="1" fill-rule="nonzero"/></g><g fill="#466b66" fill-opacity="1"><g transform="translate(2340.751003, 615.738597)"><g><path d="M 22.15625 -55.203125 L 0.390625 -55.203125 L 0.390625 -68.03125 L 59.671875 -68.03125 L 59.671875 -55.203125 L 37.90625 -55.203125 L 37.90625 0 L 22.15625 0 Z M 22.15625 -55.203125 "/></g></g></g><g fill="#466b66" fill-opacity="1"><g transform="translate(2400.800512, 615.738597)"><g><path d="M 28.09375 -53.0625 C 36.1875 -53.0625 42.40625 -51.132812 46.75 -47.28125 C 51.09375 -43.425781 53.265625 -37.613281 53.265625 -29.84375 L 53.265625 0 L 39.0625 0 L 39.0625 -6.515625 C 36.21875 -1.648438 30.90625 0.78125 23.125 0.78125 C 19.113281 0.78125 15.632812 0.101562 12.6875 -1.25 C 9.738281 -2.613281 7.484375 -4.492188 5.921875 -6.890625 C 4.367188 -9.296875 3.59375 -12.019531 3.59375 -15.0625 C 3.59375 -19.925781 5.421875 -23.75 9.078125 -26.53125 C 12.742188 -29.320312 18.398438 -30.71875 26.046875 -30.71875 L 38.09375 -30.71875 C 38.09375 -34.019531 37.085938 -36.5625 35.078125 -38.34375 C 33.078125 -40.125 30.066406 -41.015625 26.046875 -41.015625 C 23.265625 -41.015625 20.523438 -40.578125 17.828125 -39.703125 C 15.140625 -38.828125 12.859375 -37.644531 10.984375 -36.15625 L 5.546875 -46.75 C 8.390625 -48.757812 11.800781 -50.3125 15.78125 -51.40625 C 19.769531 -52.507812 23.875 -53.0625 28.09375 -53.0625 Z M 26.921875 -9.421875 C 29.515625 -9.421875 31.8125 -10.019531 33.8125 -11.21875 C 35.820312 -12.414062 37.25 -14.179688 38.09375 -16.515625 L 38.09375 -21.875 L 27.703125 -21.875 C 21.484375 -21.875 18.375 -19.832031 18.375 -15.75 C 18.375 -13.800781 19.132812 -12.257812 20.65625 -11.125 C 22.175781 -9.988281 24.265625 -9.421875 26.921875 -9.421875 Z M 26.921875 -9.421875 "/></g></g></g><g fill="#466b66" fill-opacity="1"><g transform="translate(2460.75285, 615.738597)"><g><path d="M 37.90625 -53.0625 C 42.757812 -53.0625 47.175781 -51.941406 51.15625 -49.703125 C 55.144531 -47.472656 58.273438 -44.332031 60.546875 -40.28125 C 62.816406 -36.226562 63.953125 -31.515625 63.953125 -26.140625 C 63.953125 -20.765625 62.816406 -16.050781 60.546875 -12 C 58.273438 -7.945312 55.144531 -4.800781 51.15625 -2.5625 C 47.175781 -0.332031 42.757812 0.78125 37.90625 0.78125 C 31.226562 0.78125 25.976562 -1.328125 22.15625 -5.546875 L 22.15625 18.859375 L 7 18.859375 L 7 -52.28125 L 21.484375 -52.28125 L 21.484375 -46.265625 C 25.234375 -50.796875 30.707031 -53.0625 37.90625 -53.0625 Z M 35.28125 -11.65625 C 39.164062 -11.65625 42.351562 -12.96875 44.84375 -15.59375 C 47.34375 -18.21875 48.59375 -21.734375 48.59375 -26.140625 C 48.59375 -30.546875 47.34375 -34.0625 44.84375 -36.6875 C 42.351562 -39.3125 39.164062 -40.625 35.28125 -40.625 C 31.394531 -40.625 28.203125 -39.3125 25.703125 -36.6875 C 23.210938 -34.0625 21.96875 -30.546875 21.96875 -26.140625 C 21.96875 -21.734375 23.210938 -18.21875 25.703125 -15.59375 C 28.203125 -12.96875 31.394531 -11.65625 35.28125 -11.65625 Z M 35.28125 -11.65625 "/></g></g></g><g fill="#466b66" fill-opacity="1"><g transform="translate(2527.798446, 615.738597)"><g><path d="M 58.21875 -25.953125 C 58.21875 -25.753906 58.117188 -24.394531 57.921875 -21.875 L 18.375 -21.875 C 19.082031 -18.632812 20.765625 -16.070312 23.421875 -14.1875 C 26.078125 -12.3125 29.378906 -11.375 33.328125 -11.375 C 36.054688 -11.375 38.472656 -11.773438 40.578125 -12.578125 C 42.679688 -13.390625 44.640625 -14.671875 46.453125 -16.421875 L 54.515625 -7.671875 C 49.597656 -2.035156 42.410156 0.78125 32.953125 0.78125 C 27.054688 0.78125 21.835938 -0.367188 17.296875 -2.671875 C 12.765625 -4.972656 9.265625 -8.164062 6.796875 -12.25 C 4.335938 -16.332031 3.109375 -20.960938 3.109375 -26.140625 C 3.109375 -31.265625 4.320312 -35.882812 6.75 -40 C 9.1875 -44.113281 12.523438 -47.316406 16.765625 -49.609375 C 21.003906 -51.910156 25.75 -53.0625 31 -53.0625 C 36.125 -53.0625 40.757812 -51.957031 44.90625 -49.75 C 49.050781 -47.550781 52.304688 -44.394531 54.671875 -40.28125 C 57.035156 -36.164062 58.21875 -31.390625 58.21875 -25.953125 Z M 31.09375 -41.59375 C 27.664062 -41.59375 24.785156 -40.617188 22.453125 -38.671875 C 20.117188 -36.734375 18.691406 -34.082031 18.171875 -30.71875 L 43.921875 -30.71875 C 43.410156 -34.019531 41.988281 -36.65625 39.65625 -38.625 C 37.320312 -40.601562 34.46875 -41.59375 31.09375 -41.59375 Z M 31.09375 -41.59375 "/></g></g></g><g fill="#466b66" fill-opacity="1"><g transform="translate(2589.111103, 615.738597)"><g><path d="M 3.109375 19.625 C -2.203125 19.625 -6.25 18.65625 -9.03125 16.71875 L -4.953125 5.734375 C -3.203125 6.960938 -1.066406 7.578125 1.453125 7.578125 C 3.398438 7.578125 4.921875 6.945312 6.015625 5.6875 C 7.117188 4.425781 7.671875 2.53125 7.671875 0 L 7.671875 -52.28125 L 22.84375 -52.28125 L 22.84375 -0.09375 C 22.84375 5.988281 21.109375 10.796875 17.640625 14.328125 C 14.171875 17.859375 9.328125 19.625 3.109375 19.625 Z M 15.265625 -59.578125 C 12.484375 -59.578125 10.21875 -60.382812 8.46875 -62 C 6.71875 -63.625 5.84375 -65.632812 5.84375 -68.03125 C 5.84375 -70.425781 6.71875 -72.429688 8.46875 -74.046875 C 10.21875 -75.671875 12.484375 -76.484375 15.265625 -76.484375 C 18.046875 -76.484375 20.3125 -75.707031 22.0625 -74.15625 C 23.8125 -72.601562 24.6875 -70.660156 24.6875 -68.328125 C 24.6875 -65.796875 23.8125 -63.703125 22.0625 -62.046875 C 20.3125 -60.398438 18.046875 -59.578125 15.265625 -59.578125 Z M 15.265625 -59.578125 "/></g></g></g><g fill="#466b66" fill-opacity="1"><g transform="translate(2618.941552, 615.738597)"><g><path d="M 28.09375 -53.0625 C 36.1875 -53.0625 42.40625 -51.132812 46.75 -47.28125 C 51.09375 -43.425781 53.265625 -37.613281 53.265625 -29.84375 L 53.265625 0 L 39.0625 0 L 39.0625 -6.515625 C 36.21875 -1.648438 30.90625 0.78125 23.125 0.78125 C 19.113281 0.78125 15.632812 0.101562 12.6875 -1.25 C 9.738281 -2.613281 7.484375 -4.492188 5.921875 -6.890625 C 4.367188 -9.296875 3.59375 -12.019531 3.59375 -15.0625 C 3.59375 -19.925781 5.421875 -23.75 9.078125 -26.53125 C 12.742188 -29.320312 18.398438 -30.71875 26.046875 -30.71875 L 38.09375 -30.71875 C 38.09375 -34.019531 37.085938 -36.5625 35.078125 -38.34375 C 33.078125 -40.125 30.066406 -41.015625 26.046875 -41.015625 C 23.265625 -41.015625 20.523438 -40.578125 17.828125 -39.703125 C 15.140625 -38.828125 12.859375 -37.644531 10.984375 -36.15625 L 5.546875 -46.75 C 8.390625 -48.757812 11.800781 -50.3125 15.78125 -51.40625 C 19.769531 -52.507812 23.875 -53.0625 28.09375 -53.0625 Z M 26.921875 -9.421875 C 29.515625 -9.421875 31.8125 -10.019531 33.8125 -11.21875 C 35.820312 -12.414062 37.25 -14.179688 38.09375 -16.515625 L 38.09375 -21.875 L 27.703125 -21.875 C 21.484375 -21.875 18.375 -19.832031 18.375 -15.75 C 18.375 -13.800781 19.132812 -12.257812 20.65625 -11.125 C 22.175781 -9.988281 24.265625 -9.421875 26.921875 -9.421875 Z M 26.921875 -9.421875 "/></g></g></g><g fill="#466b66" fill-opacity="1"><g transform="translate(2678.89389, 615.738597)"><g><path d="M 21.484375 -45.390625 C 23.296875 -47.910156 25.738281 -49.816406 28.8125 -51.109375 C 31.894531 -52.410156 35.441406 -53.0625 39.453125 -53.0625 L 39.453125 -39.0625 C 37.773438 -39.195312 36.644531 -39.265625 36.0625 -39.265625 C 31.71875 -39.265625 28.3125 -38.046875 25.84375 -35.609375 C 23.382812 -33.179688 22.15625 -29.539062 22.15625 -24.6875 L 22.15625 0 L 7 0 L 7 -52.28125 L 21.484375 -52.28125 Z M 21.484375 -45.390625 "/></g></g></g><g fill="#466b66" fill-opacity="1"><g transform="translate(2720.773095, 615.738597)"><g><path d="M 28.09375 -53.0625 C 36.1875 -53.0625 42.40625 -51.132812 46.75 -47.28125 C 51.09375 -43.425781 53.265625 -37.613281 53.265625 -29.84375 L 53.265625 0 L 39.0625 0 L 39.0625 -6.515625 C 36.21875 -1.648438 30.90625 0.78125 23.125 0.78125 C 19.113281 0.78125 15.632812 0.101562 12.6875 -1.25 C 9.738281 -2.613281 7.484375 -4.492188 5.921875 -6.890625 C 4.367188 -9.296875 3.59375 -12.019531 3.59375 -15.0625 C 3.59375 -19.925781 5.421875 -23.75 9.078125 -26.53125 C 12.742188 -29.320312 18.398438 -30.71875 26.046875 -30.71875 L 38.09375 -30.71875 C 38.09375 -34.019531 37.085938 -36.5625 35.078125 -38.34375 C 33.078125 -40.125 30.066406 -41.015625 26.046875 -41.015625 C 23.265625 -41.015625 20.523438 -40.578125 17.828125 -39.703125 C 15.140625 -38.828125 12.859375 -37.644531 10.984375 -36.15625 L 5.546875 -46.75 C 8.390625 -48.757812 11.800781 -50.3125 15.78125 -51.40625 C 19.769531 -52.507812 23.875 -53.0625 28.09375 -53.0625 Z M 26.921875 -9.421875 C 29.515625 -9.421875 31.8125 -10.019531 33.8125 -11.21875 C 35.820312 -12.414062 37.25 -14.179688 38.09375 -16.515625 L 38.09375 -21.875 L 27.703125 -21.875 C 21.484375 -21.875 18.375 -19.832031 18.375 -15.75 C 18.375 -13.800781 19.132812 -12.257812 20.65625 -11.125 C 22.175781 -9.988281 24.265625 -9.421875 26.921875 -9.421875 Z M 26.921875 -9.421875 "/></g></g></g><g fill="#466b66" fill-opacity="1"><g transform="translate(3378.549492, 1612.15552)"><g><path d="M 38.203125 -58.125 C 32.660156 -58.125 28.367188 -56.046875 25.328125 -51.890625 C 22.296875 -47.734375 20.78125 -41.9375 20.78125 -34.5 C 20.78125 -19.03125 26.585938 -11.296875 38.203125 -11.296875 C 43.078125 -11.296875 48.976562 -12.515625 55.90625 -14.953125 L 55.90625 -2.609375 C 50.207031 -0.234375 43.847656 0.953125 36.828125 0.953125 C 26.734375 0.953125 19.007812 -2.109375 13.65625 -8.234375 C 8.3125 -14.359375 5.640625 -23.144531 5.640625 -34.59375 C 5.640625 -41.8125 6.953125 -48.128906 9.578125 -53.546875 C 12.210938 -58.972656 15.988281 -63.132812 20.90625 -66.03125 C 25.820312 -68.925781 31.585938 -70.375 38.203125 -70.375 C 44.941406 -70.375 51.710938 -68.742188 58.515625 -65.484375 L 53.765625 -53.53125 C 51.171875 -54.757812 48.5625 -55.832031 45.9375 -56.75 C 43.3125 -57.664062 40.734375 -58.125 38.203125 -58.125 Z M 38.203125 -58.125 "/></g></g></g><g fill="#466b66" fill-opacity="1"><g transform="translate(3440.465624, 1612.15552)"><g><path d="M 41.28125 0 L 38.484375 -7.21875 L 38.109375 -7.21875 C 35.671875 -4.144531 33.160156 -2.015625 30.578125 -0.828125 C 28.003906 0.359375 24.644531 0.953125 20.5 0.953125 C 15.40625 0.953125 11.394531 -0.5 8.46875 -3.40625 C 5.539062 -6.320312 4.078125 -10.46875 4.078125 -15.84375 C 4.078125 -21.476562 6.046875 -25.628906 9.984375 -28.296875 C 13.921875 -30.972656 19.863281 -32.457031 27.8125 -32.75 L 37.015625 -33.03125 L 37.015625 -35.359375 C 37.015625 -40.734375 34.257812 -43.421875 28.75 -43.421875 C 24.519531 -43.421875 19.539062 -42.140625 13.8125 -39.578125 L 9.015625 -49.359375 C 15.117188 -52.546875 21.890625 -54.140625 29.328125 -54.140625 C 36.441406 -54.140625 41.894531 -52.585938 45.6875 -49.484375 C 49.488281 -46.390625 51.390625 -41.679688 51.390625 -35.359375 L 51.390625 0 Z M 37.015625 -24.578125 L 31.421875 -24.390625 C 27.210938 -24.265625 24.078125 -23.503906 22.015625 -22.109375 C 19.960938 -20.722656 18.9375 -18.601562 18.9375 -15.75 C 18.9375 -11.675781 21.273438 -9.640625 25.953125 -9.640625 C 29.304688 -9.640625 31.988281 -10.601562 34 -12.53125 C 36.007812 -14.457031 37.015625 -17.019531 37.015625 -20.21875 Z M 37.015625 -24.578125 "/></g></g></g><g fill="#466b66" fill-opacity="1"><g transform="translate(3499.155475, 1612.15552)"><g><path d="M 56.5625 0 L 42.09375 0 L 42.09375 -30.984375 C 42.09375 -34.816406 41.410156 -37.6875 40.046875 -39.59375 C 38.691406 -41.507812 36.523438 -42.46875 33.546875 -42.46875 C 29.492188 -42.46875 26.566406 -41.113281 24.765625 -38.40625 C 22.960938 -35.707031 22.0625 -31.226562 22.0625 -24.96875 L 22.0625 0 L 7.59375 0 L 7.59375 -53.046875 L 18.65625 -53.046875 L 20.59375 -46.265625 L 21.40625 -46.265625 C 23.019531 -48.828125 25.238281 -50.765625 28.0625 -52.078125 C 30.894531 -53.390625 34.117188 -54.046875 37.734375 -54.046875 C 43.898438 -54.046875 48.578125 -52.375 51.765625 -49.03125 C 54.960938 -45.695312 56.5625 -40.882812 56.5625 -34.59375 Z M 56.5625 0 "/></g></g></g><g fill="#466b66" fill-opacity="1"><g transform="translate(3563.016865, 1612.15552)"><g><path d="M 19.125 -26.625 C 19.125 -21.375 19.984375 -17.398438 21.703125 -14.703125 C 23.429688 -12.015625 26.242188 -10.671875 30.140625 -10.671875 C 33.992188 -10.671875 36.765625 -12.007812 38.453125 -14.6875 C 40.148438 -17.363281 41 -21.34375 41 -26.625 C 41 -31.875 40.144531 -35.8125 38.4375 -38.4375 C 36.726562 -41.0625 33.925781 -42.375 30.03125 -42.375 C 26.175781 -42.375 23.394531 -41.066406 21.6875 -38.453125 C 19.976562 -35.847656 19.125 -31.90625 19.125 -26.625 Z M 55.8125 -26.625 C 55.8125 -17.988281 53.53125 -11.234375 48.96875 -6.359375 C 44.414062 -1.484375 38.070312 0.953125 29.9375 0.953125 C 24.84375 0.953125 20.347656 -0.160156 16.453125 -2.390625 C 12.566406 -4.617188 9.578125 -7.820312 7.484375 -12 C 5.398438 -16.175781 4.359375 -21.050781 4.359375 -26.625 C 4.359375 -35.289062 6.617188 -42.023438 11.140625 -46.828125 C 15.671875 -51.640625 22.035156 -54.046875 30.234375 -54.046875 C 35.328125 -54.046875 39.816406 -52.9375 43.703125 -50.71875 C 47.597656 -48.507812 50.585938 -45.332031 52.671875 -41.1875 C 54.765625 -37.039062 55.8125 -32.1875 55.8125 -26.625 Z M 55.8125 -26.625 "/></g></g></g><g fill="#466b66" fill-opacity="1"><g transform="translate(3623.177521, 1612.15552)"><g><path d="M 41.28125 0 L 38.484375 -7.21875 L 38.109375 -7.21875 C 35.671875 -4.144531 33.160156 -2.015625 30.578125 -0.828125 C 28.003906 0.359375 24.644531 0.953125 20.5 0.953125 C 15.40625 0.953125 11.394531 -0.5 8.46875 -3.40625 C 5.539062 -6.320312 4.078125 -10.46875 4.078125 -15.84375 C 4.078125 -21.476562 6.046875 -25.628906 9.984375 -28.296875 C 13.921875 -30.972656 19.863281 -32.457031 27.8125 -32.75 L 37.015625 -33.03125 L 37.015625 -35.359375 C 37.015625 -40.734375 34.257812 -43.421875 28.75 -43.421875 C 24.519531 -43.421875 19.539062 -42.140625 13.8125 -39.578125 L 9.015625 -49.359375 C 15.117188 -52.546875 21.890625 -54.140625 29.328125 -54.140625 C 36.441406 -54.140625 41.894531 -52.585938 45.6875 -49.484375 C 49.488281 -46.390625 51.390625 -41.679688 51.390625 -35.359375 L 51.390625 0 Z M 37.015625 -24.578125 L 31.421875 -24.390625 C 27.210938 -24.265625 24.078125 -23.503906 22.015625 -22.109375 C 19.960938 -20.722656 18.9375 -18.601562 18.9375 -15.75 C 18.9375 -11.675781 21.273438 -9.640625 25.953125 -9.640625 C 29.304688 -9.640625 31.988281 -10.601562 34 -12.53125 C 36.007812 -14.457031 37.015625 -17.019531 37.015625 -20.21875 Z M 37.015625 -24.578125 "/></g></g></g><g fill="#466b66" fill-opacity="1"><g transform="translate(3681.867372, 1612.15552)"><g><path d="M 44.609375 -15.75 C 44.609375 -10.3125 42.71875 -6.164062 38.9375 -3.3125 C 35.15625 -0.46875 29.5 0.953125 21.96875 0.953125 C 18.113281 0.953125 14.820312 0.691406 12.09375 0.171875 C 9.375 -0.347656 6.828125 -1.117188 4.453125 -2.140625 L 4.453125 -14.09375 C 7.148438 -12.832031 10.179688 -11.773438 13.546875 -10.921875 C 16.921875 -10.066406 19.890625 -9.640625 22.453125 -9.640625 C 27.703125 -9.640625 30.328125 -11.15625 30.328125 -14.1875 C 30.328125 -15.320312 29.976562 -16.242188 29.28125 -16.953125 C 28.582031 -17.671875 27.378906 -18.476562 25.671875 -19.375 C 23.960938 -20.28125 21.6875 -21.335938 18.84375 -22.546875 C 14.757812 -24.253906 11.757812 -25.832031 9.84375 -27.28125 C 7.925781 -28.738281 6.53125 -30.40625 5.65625 -32.28125 C 4.789062 -34.164062 4.359375 -36.488281 4.359375 -39.25 C 4.359375 -43.957031 6.1875 -47.597656 9.84375 -50.171875 C 13.5 -52.753906 18.679688 -54.046875 25.390625 -54.046875 C 31.773438 -54.046875 37.988281 -52.65625 44.03125 -49.875 L 39.671875 -39.4375 C 37.015625 -40.570312 34.53125 -41.503906 32.21875 -42.234375 C 29.90625 -42.960938 27.550781 -43.328125 25.15625 -43.328125 C 20.882812 -43.328125 18.75 -42.171875 18.75 -39.859375 C 18.75 -38.566406 19.4375 -37.441406 20.8125 -36.484375 C 22.1875 -35.535156 25.195312 -34.128906 29.84375 -32.265625 C 33.988281 -30.585938 37.023438 -29.019531 38.953125 -27.5625 C 40.890625 -26.113281 42.316406 -24.4375 43.234375 -22.53125 C 44.148438 -20.632812 44.609375 -18.375 44.609375 -15.75 Z M 44.609375 -15.75 "/></g></g></g><g fill="#466b66" fill-opacity="1"><g transform="translate(2509.942417, 1041.856847)"><g><path d="M 69.96875 0 L 69.875 -40.8125 L 49.859375 -7.1875 L 42.765625 -7.1875 L 22.84375 -39.9375 L 22.84375 0 L 8.0625 0 L 8.0625 -68.03125 L 21.09375 -68.03125 L 46.546875 -25.75 L 71.625 -68.03125 L 84.546875 -68.03125 L 84.75 0 Z M 69.96875 0 "/></g></g></g><g fill="#466b66" fill-opacity="1"><g transform="translate(2602.737356, 1041.856847)"><g><path d="M 28.09375 -53.0625 C 36.1875 -53.0625 42.40625 -51.132812 46.75 -47.28125 C 51.09375 -43.425781 53.265625 -37.613281 53.265625 -29.84375 L 53.265625 0 L 39.0625 0 L 39.0625 -6.515625 C 36.21875 -1.648438 30.90625 0.78125 23.125 0.78125 C 19.113281 0.78125 15.632812 0.101562 12.6875 -1.25 C 9.738281 -2.613281 7.484375 -4.492188 5.921875 -6.890625 C 4.367188 -9.296875 3.59375 -12.019531 3.59375 -15.0625 C 3.59375 -19.925781 5.421875 -23.75 9.078125 -26.53125 C 12.742188 -29.320312 18.398438 -30.71875 26.046875 -30.71875 L 38.09375 -30.71875 C 38.09375 -34.019531 37.085938 -36.5625 35.078125 -38.34375 C 33.078125 -40.125 30.066406 -41.015625 26.046875 -41.015625 C 23.265625 -41.015625 20.523438 -40.578125 17.828125 -39.703125 C 15.140625 -38.828125 12.859375 -37.644531 10.984375 -36.15625 L 5.546875 -46.75 C 8.390625 -48.757812 11.800781 -50.3125 15.78125 -51.40625 C 19.769531 -52.507812 23.875 -53.0625 28.09375 -53.0625 Z M 26.921875 -9.421875 C 29.515625 -9.421875 31.8125 -10.019531 33.8125 -11.21875 C 35.820312 -12.414062 37.25 -14.179688 38.09375 -16.515625 L 38.09375 -21.875 L 27.703125 -21.875 C 21.484375 -21.875 18.375 -19.832031 18.375 -15.75 C 18.375 -13.800781 19.132812 -12.257812 20.65625 -11.125 C 22.175781 -9.988281 24.265625 -9.421875 26.921875 -9.421875 Z M 26.921875 -9.421875 "/></g></g></g><g fill="#466b66" fill-opacity="1"><g transform="translate(2662.689694, 1041.856847)"><g><path d="M 21.484375 -45.390625 C 23.296875 -47.910156 25.738281 -49.816406 28.8125 -51.109375 C 31.894531 -52.410156 35.441406 -53.0625 39.453125 -53.0625 L 39.453125 -39.0625 C 37.773438 -39.195312 36.644531 -39.265625 36.0625 -39.265625 C 31.71875 -39.265625 28.3125 -38.046875 25.84375 -35.609375 C 23.382812 -33.179688 22.15625 -29.539062 22.15625 -24.6875 L 22.15625 0 L 7 0 L 7 -52.28125 L 21.484375 -52.28125 Z M 21.484375 -45.390625 "/></g></g></g><g fill="#466b66" fill-opacity="1"><g transform="translate(2704.568898, 1041.856847)"><g><path d="M 28.09375 -53.0625 C 36.1875 -53.0625 42.40625 -51.132812 46.75 -47.28125 C 51.09375 -43.425781 53.265625 -37.613281 53.265625 -29.84375 L 53.265625 0 L 39.0625 0 L 39.0625 -6.515625 C 36.21875 -1.648438 30.90625 0.78125 23.125 0.78125 C 19.113281 0.78125 15.632812 0.101562 12.6875 -1.25 C 9.738281 -2.613281 7.484375 -4.492188 5.921875 -6.890625 C 4.367188 -9.296875 3.59375 -12.019531 3.59375 -15.0625 C 3.59375 -19.925781 5.421875 -23.75 9.078125 -26.53125 C 12.742188 -29.320312 18.398438 -30.71875 26.046875 -30.71875 L 38.09375 -30.71875 C 38.09375 -34.019531 37.085938 -36.5625 35.078125 -38.34375 C 33.078125 -40.125 30.066406 -41.015625 26.046875 -41.015625 C 23.265625 -41.015625 20.523438 -40.578125 17.828125 -39.703125 C 15.140625 -38.828125 12.859375 -37.644531 10.984375 -36.15625 L 5.546875 -46.75 C 8.390625 -48.757812 11.800781 -50.3125 15.78125 -51.40625 C 19.769531 -52.507812 23.875 -53.0625 28.09375 -53.0625 Z M 26.921875 -9.421875 C 29.515625 -9.421875 31.8125 -10.019531 33.8125 -11.21875 C 35.820312 -12.414062 37.25 -14.179688 38.09375 -16.515625 L 38.09375 -21.875 L 27.703125 -21.875 C 21.484375 -21.875 18.375 -19.832031 18.375 -15.75 C 18.375 -13.800781 19.132812 -12.257812 20.65625 -11.125 C 22.175781 -9.988281 24.265625 -9.421875 26.921875 -9.421875 Z M 26.921875 -9.421875 "/></g></g></g><g fill="#466b66" fill-opacity="1"><g transform="translate(2764.521236, 1041.856847)"><g><path d="M 59.671875 -52.28125 L 59.671875 0 L 45.296875 0 L 45.296875 -6.21875 C 43.285156 -3.945312 40.882812 -2.210938 38.09375 -1.015625 C 35.3125 0.179688 32.300781 0.78125 29.0625 0.78125 C 22.1875 0.78125 16.738281 -1.191406 12.71875 -5.140625 C 8.707031 -9.097656 6.703125 -14.960938 6.703125 -22.734375 L 6.703125 -52.28125 L 21.875 -52.28125 L 21.875 -24.984375 C 21.875 -16.554688 25.398438 -12.34375 32.453125 -12.34375 C 36.085938 -12.34375 39.003906 -13.523438 41.203125 -15.890625 C 43.410156 -18.253906 44.515625 -21.769531 44.515625 -26.4375 L 44.515625 -52.28125 Z M 59.671875 -52.28125 "/></g></g></g></svg>